<svg xmlns="http://www.w3.org/2000/svg" width="1240" height="1240"><path d="M577.291 2.26c-.566 1.242-4.19 3.992-8.053 6.109-14.142 7.753-22.778 18.213-25.803 31.255C541.514 47.908 542.241 51 546.108 51c2.554 0 2.892-.355 2.892-3.033 0-1.669 1.216-5.381 2.703-8.25 1.486-2.869 2.74-5.442 2.785-5.717.588-3.559 13.358-16.822 19.012-19.745 1.65-.853 4.49-2.684 6.31-4.068l3.31-2.516 7.69 3.906c11.145 5.661 18.751 11.072 20.974 14.923.791 1.37 1.165 1.536 1.186.527.019-.93.667-.562 1.762 1 .952 1.36 1.589 2.648 1.414 2.861-.174.214.252.74.948 1.17.696.43 1.368 1.484 1.494 2.342.126.858.968 2.299 1.871 3.201.902.903 1.501 2.375 1.331 3.27-.246 1.292-2.069 1.759-8.8 2.255-48.829 3.597-60.027 4.807-60.698 6.556-1.133 2.952-3.212 3.014 40.708-1.203 7.975-.766 18.1-1.524 22.5-1.686l8-.293 1.141 18.5c.627 10.175 1.869 27.5 2.76 38.5 2.943 36.336 3.619 51.865 2.295 52.724-.927.602-.926.951.005 1.555 1.072.695 3.59 28.046 3.749 40.721l.05 4h-10l-.753-13c-.414-7.15-.639-17.275-.5-22.5l.253-9.5 2.75.288c1.513.158 2.75-.179 2.75-.75S626.67 156 625.045 156c-3.146 0-3.626-1.119-4.285-10-.173-2.329-.762-3.5-1.76-3.5-1.156 0-1.568 1.548-1.796 6.75-.291 6.648-.337 6.75-3.083 6.75-1.533 0-3.053-.266-3.378-.59-.325-.325.535-2.688 1.911-5.25 2.127-3.963 2.452-5.709 2.166-11.672-.271-5.678-.892-7.891-3.264-11.641-5.458-8.628-16.257-11.314-25.421-6.322-6.44 3.509-8.334 7.175-8.913 17.258-.389 6.771-.818 8.466-2.349 9.285-1.076.576-1.873 2.083-1.873 3.543v2.541l-8.25-.638c-16.806-1.302-69.384-1.672-83.25-.587-7.7.602-19.625 1.531-26.5 2.063-20.09 1.554-27.13 2.921-12 2.329 6.875-.269 14.075-.922 16-1.453 5.504-1.515 84.091-2.423 86.747-1.002 1.911 1.024 2.213 2.153 2.509 9.4l.337 8.236.203-8.381.204-8.381 3.482.565c1.915.311 3.741.145 4.059-.369.317-.514 4.142-.934 8.499-.934 7.405 0 7.954.147 8.407 2.25 1.024 4.75 2.664 42.033 1.88 42.713-.801.694-11.856-.065-21.596-1.482-2.757-.402-5.288-.279-6 .291-.728.583-17.567 1.27-41.231 1.681-37.622.654-42.472.705-50 .518-5.289-.13-32.957 3.32-34.191 4.264-1.832 1.403-.457 3.574 2.705 4.268 4.03.885 4.731 2.162 5.132 9.353l.354 6.356-3.5 1.144c-2.358.771-3.6 1.846-3.807 3.295-.381 2.678 5.089 9.131 8.459 9.976 3.013.757 6.348-1.987 6.348-5.223 0-2.912.554-3.217 7.295-4.009l5.566-.654.657 3.879c.361 2.134.851 4.599 1.089 5.478.487 1.805 5.071 4.233 5.791 3.067.258-.417-.205-7.874-1.03-16.57-.824-8.697-1.258-16.438-.965-17.203.314-.819 1.962-1.392 3.998-1.392 2.544 0 3.627-.513 4.077-1.93.528-1.663 1.885-2.01 9.817-2.503 8.177-.509 61.637-.917 78.705-.601 3.575.067 9.777.084 13.783.039 4.005-.046 7.678.162 8.16.46.991.612 1.732 10.004 2.546 32.285l.557 15.25h-9.023c-4.963 0-9.023-.369-9.023-.819 0-.451-2.073-.697-4.607-.548-4.395.259-4.586.159-4.143-2.159.337-1.762-.058-2.596-1.438-3.034-1.045-.331-9.981-.279-19.857.117l-17.955.719-.056-2.388c-.093-3.974-3.395-10.903-6.909-14.497-4.309-4.406-7.625-4.446-11.777-.141-3.874 4.015-5.122 7.231-6.228 16.038-.475 3.784-1.107 7.122-1.405 7.42-.297.297-6.747.929-14.333 1.403-7.585.474-16.042 1.321-18.792 1.882-2.75.562-13.412 2.12-23.692 3.462-16.547 2.161-30.469 4.959-50.308 10.109-10.772 2.796-19.617 5.653-19.1 6.169.592.592 14.278-2.585 16.872-3.917.974-.5 7.949-2.202 15.5-3.783 7.55-1.58 16.428-3.568 19.728-4.418 3.3-.849 13.875-2.502 23.5-3.673 9.625-1.17 21.325-2.623 26-3.229 4.675-.605 12.325-1.126 17-1.157l8.5-.056.592 5.508c1 9.296 4.356 17.131 8.871 20.71 2.679 2.124 7.888 1.522 10.637-1.228 3.07-3.07 5.4-8.416 5.4-12.393 0-1.632.412-4.049.915-5.373.906-2.383 1.086-2.412 19.208-3.092 17.631-.662 19.067-.94 20.113-3.89.148-.417 5.953-1.047 12.9-1.399l12.63-.64.728 24.399c.4 13.419.828 29.573.95 35.898.267 13.835 2.305 58.101 3.062 66.5.556 6.182 2.736 59.931 4.502 111 1.74 50.336 4.786 121.869 5.494 129 .272 2.75.951 20.525 1.507 39.5l1.439 49c.235 7.975.961 24.85 1.614 37.5.652 12.65.915 28.4.583 35-1.189 23.66-6.03 49.754-12.802 69-1.161 3.3-3.334 9.6-4.829 14-2.523 7.425-7.923 19.942-11.649 27-.87 1.65-3.823 7.271-6.56 12.492-7.669 14.626-25.729 42.542-42.465 65.638-4.037 5.571-7.34 10.531-7.34 11.022 0 .491-1.295 2.463-2.878 4.383-2.929 3.554-14.122 22.784-14.122 24.263 0 .447-.947 2.891-2.105 5.432-5.915 12.985-9.954 49.335-7.973 71.77 2.561 29.014 8.42 50.103 17.365 62.5 7.443 10.317 8.69 11.769 18.375 21.394 18.778 18.664 28.725 23.309 58.949 27.527 17.809 2.485 29.389 3.393 29.389 2.304 0-1.032-8.301-2.644-24.5-4.757-17.863-2.331-34.972-7.365-42.707-12.568-15.373-10.34-32.999-29.443-40.052-43.407-8.878-17.578-13.956-52.469-11.732-80.604 2.888-36.537 7.069-47.5 31.989-83.889 3.955-5.775 7.921-11.318 8.813-12.318.892-1 2.537-3.331 3.655-5.181 1.119-1.85 5.133-8.007 8.921-13.682 8.077-12.102 10.5-15.895 13.621-21.319 1.266-2.2 3.866-6.7 5.778-10 4.492-7.755 14.713-28.269 15.694-31.5.417-1.375 1.788-4.75 3.046-7.5 3.861-8.441 9.198-25.284 12.834-40.5 1.906-7.975 3.908-16.3 4.449-18.5l.984-4 .12 3.5c.066 1.925 1.007 26.675 2.092 55 1.084 28.325 1.984 53.3 1.999 55.5.033 5.005 1.305 7.319 3.17 5.771 1.095-.909 1.123-6.634.159-32.936-.641-17.509-1.646-38.36-2.232-46.335-.585-7.975-1.524-30.025-2.084-49-.561-18.975-1.48-45.525-2.042-59a9311.022 9311.022 0 01-2.016-53c-.547-15.675-1.428-36.375-1.959-46-1.428-25.899-3.822-84.762-5.044-124-.59-18.975-1.723-48.225-2.517-65-1.88-39.742-4.449-107.341-4.826-127-.308-16.086-2.256-59.006-3.048-67.174-.572-5.9.651-7.032 6.7-6.203l4.557.624.61 6.627c1.244 13.514 1.583 57.998.448 58.7-.784.485-.773.874.038 1.376.724.447 1.473 7.707 2.078 20.125 2.863 58.805 4.215 91.111 6.001 143.425 1.089 31.9 2.431 65.65 2.981 75 .55 9.35 1.459 30.05 2.02 46 .562 15.95 1.482 39.575 2.045 52.5.564 12.925 1.455 36.55 1.98 52.5.525 15.95 1.389 38.225 1.919 49.5.932 19.845 1.442 32.907 4.565 116.88 1.431 38.495 2.06 43.953 4.756 41.257.954-.954.276-22.743-2.74-88.137-1.914-41.478-3.298-77.123-4.563-117.5-.569-18.15-1.682-45.6-2.475-61-.792-15.4-2.145-48.925-3.006-74.5-1.457-43.291-3.121-84.993-5.466-137-3.162-70.113-4.111-95.863-3.977-107.947.082-7.454-.33-20.528-.917-29.053-.586-8.525-1.19-22.925-1.342-32l-.277-16.5 2.352-.333c1.293-.183 3.379-.075 4.634.24 2.237.562 2.298.941 3.038 18.833.416 10.043.884 24.785 1.042 32.76.267 13.566.759 25.885 3.45 86.5 1.094 24.632 2.891 71.186 5.5 142.5.816 22.275 1.931 49.05 2.479 59.5.549 10.45 1.88 45.1 2.958 77 1.079 31.9 2.214 62.05 2.523 67 .309 4.95.997 20.025 1.53 33.5.533 13.475 1.203 29 1.489 34.5.287 5.5 1.193 30.25 2.015 55 1.594 48.018 2.167 57.5 3.476 57.5.455 0 .572-.976.26-2.169-.458-1.749-.233-2.04 1.165-1.504 1.55.595 1.669.113 1.137-4.581-.754-6.642-2.121-38.363-4.018-93.246-1.614-46.709-3.963-104.611-5.496-135.5-.532-10.725-1.213-26.925-1.513-36-2.419-73.162-4.525-127.142-6.514-167-.508-10.175-1.637-40.325-2.509-67-.872-26.675-1.96-57.95-2.418-69.5-.458-11.55-.588-21.416-.29-21.924.857-1.459.599-6.596-.632-12.576-1.056-5.13-3.143-49.261-2.436-51.526.193-.62 2.389-.818 5.549-.5l5.229.526.766 17c.422 9.35.647 23.413.5 31.25-.146 7.838.014 14.363.356 14.5.341.138 1.144 13.3 1.784 29.25.639 15.95 1.582 37.55 2.095 48 .973 19.809 2.247 53.373 4.023 106 .576 17.05 1.706 45.625 2.51 63.5 2.221 49.318 5.276 126.652 6.439 163 .985 30.78 1.615 45.924 4.057 97.5.573 12.1 1.458 35.177 1.967 51.283.509 16.106 1.195 29.718 1.523 30.25.329.532 1.31.967 2.181.967 1.386 0 1.506-1.396.967-11.25-.339-6.187-1.292-28.125-2.118-48.75-.827-20.625-1.979-48.3-2.561-61.5-.582-13.2-1.488-38.175-2.012-55.5-.525-17.325-1.4-40.275-1.943-51-.544-10.725-1.897-45.15-3.006-76.5-1.11-31.35-2.464-66.45-3.009-78-2.468-52.243-3.132-67.822-4.031-94.5-2.368-70.321-3.998-112.809-4.948-129-.565-9.625-1.143-24.025-1.284-32l-.256-14.5 5.5.303c3.025.166 5.789.616 6.143 1 .818.886 3.999 49.158 3.313 50.268-.281.455-.043 3.754.528 7.331 1.198 7.495 3.513 38.876 5.06 68.598 1.442 27.683 1.625 29 4.017 29 1.067 0 1.977-.562 2.024-1.25.331-4.854-1.061-27.868-4.031-66.623-1.111-14.505-1.776-26.767-1.478-27.25.602-.974 21.506-1.211 26.087-.294 2.688.537 3.008 1.085 4.152 7.118 1.169 6.162 4.803 13.972 7.48 16.076 2.247 1.766 6.993 2.346 9.772 1.195 3.21-1.329 6.111-7.306 7.996-16.472l1.234-6h61.601c43.321 0 66.202-.4 77.102-1.347 8.525-.741 16.625-1.416 18-1.5 2.298-.141 2.525.23 2.805 4.597.427 6.659 2.896 6.482 3.792-.272.367-2.763.999-5.228 1.406-5.48.406-.251 11.694-2.074 25.084-4.052 13.39-1.977 24.598-3.751 24.906-3.941.308-.191 5.948-1.521 12.533-2.956 6.586-1.436 15.349-3.528 19.474-4.649s11.55-3.111 16.5-4.421c8.521-2.256 42.18-13.615 60.364-20.371 4.601-1.71 8.763-3.108 9.25-3.108 1.337 0 1.063 9.423-.314 10.8-.66.66-2.183 1.2-3.383 1.2-1.342 0-2.385.77-2.706 1.999-.654 2.499.478 3.243 3.706 2.432 3.771-.946 7.583-8.117 7.583-14.266v-4.978l7.75-3.196c10.549-4.349 22.377-10.064 24.5-11.839 3.966-3.314.811-4.224-5.032-1.451-2.629 1.247-3.691 1.381-3.984.5-.649-1.945-2.194-1.382-3.385 1.231-1.473 3.233-6.279 5.286-8.35 3.567-2.183-1.811-1.877-3.014 1.709-6.714 2.763-2.85 3.214-4.036 3.25-8.547.04-5.022-.075-5.251-2.796-5.563-3.154-.361-6.057 1.755-8.264 6.023-1.853 3.583-1.81 12.874.07 15.361.808 1.067 1.483 2.301 1.5 2.742.035.882-6.951 4.049-7.569 3.431-.776-.775-2.399-11.128-2.399-15.299 0-3.692.316-4.339 2.25-4.613 3.294-.468 2.94-3.4-.364-3.016-2.863.332-2.732.786-4.471-15.504l-.662-6.201 5.373-2.479c2.956-1.364 8.399-3.698 12.097-5.188 3.698-1.49 6.499-3.073 6.224-3.517-.274-.445-3.3.447-6.723 1.981s-8.024 3.369-10.224 4.077c-2.2.708-4.525 1.703-5.166 2.21-1.712 1.355-2.701-2.629-1.301-5.245.814-1.52 1.826-2.007 3.505-1.686 2.368.453 4.054-1.486 2.906-3.342-2.298-3.72-11.444 3.475-11.444 9.002 0 3.474-.984 4.335-8 6.999-6.834 2.595-7.402 2.591-10.998-.068-4.365-3.227-8.575-1.69-12.732 4.648l-3.23 4.925-11.935 3.135c-12.06 3.169-18.501 5.386-17.77 6.118.493.492 9.43-1.389 12.165-2.561 4.932-2.113 16.646-5.296 17.253-4.688.37.37.709 2.564.754 4.876.044 2.312.464 10.662.932 18.555.962 16.209 1.001 16.108-6.221 16.134-10.351.037-17.413 6.827-12.615 12.128 1.507 1.666 1.253 1.87-4.25 3.42a869.314 869.314 0 00-12.208 3.558c-8.391 2.52-8.772 2.443-5.734-1.168 3.413-4.056 3.412-8.259-.003-10.626-1.426-.988-4.01-2.994-5.742-4.458l-3.151-2.661 2.77-1.262c2.118-.965 3.045-.986 3.942-.089 1.805 1.805 3.773 1.392 3.773-.792 0-2.481-3.39-4.354-6.288-3.474-2.922.888-6.631 5.388-6.676 8.1-.038 2.286 5.13 7.339 7.506 7.339 1.85 0 3.61 3.44 2.817 5.507-.5 1.303-1.714 1.583-5.747 1.323-4.503-.291-5.112-.099-5.112 1.606 0 1.364 1.036 2.221 3.5 2.898l3.5.96-6.5 1.291c-9.389 1.866-9.877 1.784-6.74-1.125 2.061-1.912 2.74-3.483 2.74-6.345 0-4.111-1.322-5.77-6.812-8.552-4.082-2.069-3.97-4.914.212-5.393 1.586-.182 3.219.214 3.63.878.907 1.469 2.97.377 2.97-1.572 0-2.001-3.678-3.707-6.288-2.916-3.613 1.094-6.712 4.569-6.712 7.525 0 2.872 4.117 7.183 8.053 8.432 1.526.484 1.983 1.348 1.755 3.319-.241 2.084-.919 2.734-3.118 2.986-1.546.177-3.453-.21-4.238-.862-.784-.651-2.107-.923-2.939-.603-2.336.896-1.791 3.559.987 4.825 1.375.626 2.5 1.45 2.5 1.829 0 1.302-21.432 5.519-42.5 8.362-17.15 2.314-19.544 2.508-18.941 1.532.307-.498 1.867-.905 3.465-.905 3.571 0 9.713-5.127 11.625-9.702 1.846-4.419 1.719-12.328-.244-15.13-2.501-3.57-8.154-2.691-11.123 1.73-2.247 3.345-2.282 3.358-2.282.809 0-3.531-1.957-4.478-4.011-1.941-1.291 1.594-1.819 4.938-2.248 14.235-.308 6.683-.764 12.355-1.013 12.604-.579.579-14.317 2.031-27.228 2.877-8.075.53-9.759.412-8.75-.613.688-.698 1.265-2.416 1.284-3.819.019-1.402.903-4.35 1.966-6.55s1.95-4.45 1.971-5c.021-.55 1.128-2.35 2.459-4 3.588-4.447 4.509-2.519 3.583 7.5-.835 9.027-.691 10 1.479 10 1.468 0 1.948-1.198 3.003-7.5.827-4.937 6.146-14.5 8.066-14.5 1.147 0 1.296 1.393.789 7.386-.75 8.871-.044 12.259 2.737 13.142 2.263.718 6.913-2.782 6.913-5.202 0-1.617-1.214-1.712-2.713-.213-2.397 2.397-3.476-.182-2.71-6.475.961-7.886.737-10.753-.973-12.462-2.099-2.099-5.336-.538-8.36 4.032l-2.68 4.049-.783-3.022c-.431-1.662-1.548-3.315-2.482-3.674-2.255-.865-6.338 2.238-8.591 6.527l-1.791 3.412.446-4.25c.376-3.577.165-4.25-1.336-4.25-3.312 0-4.066 2.497-4.299 14.253l-.228 11.494-5.897.627c-8.132.864-13.603.783-13.603-.2 0-.454 1.086-1.846 2.414-3.093 1.328-1.248 3.648-4.22 5.156-6.605 1.516-2.399 3.789-4.6 5.086-4.926 2.649-.665 3.193-2.55.736-2.55-1.229 0-1.456-.608-.963-2.572 1.596-6.361 2.683-19.502 2.111-25.511l-.628-6.583 14.794-1.239c38.362-3.215 59.257-5.223 64.294-6.179 3.025-.575 13.557-2.371 23.403-3.993 9.847-1.621 19.747-3.573 22-4.337 2.254-.764 6.92-1.945 10.371-2.623 6.553-1.287 10.247-3.67 4.112-2.652-9.01 1.496-18.683 3.773-21.386 5.035-1.65.771-9.975 2.391-18.5 3.601-8.525 1.209-19.325 2.87-24 3.69-12.445 2.182-30.793 4.036-53.873 5.443-19.086 1.164-20.585 1.128-23.715-.557-3.232-1.741-3.432-1.738-6.126.089-2.605 1.766-4.926 1.877-35.786 1.717-50.85-.264-127.506-3.861-131.22-6.156-1.138-.703-2.049-9.675-3.829-37.72l-.638-10.048 15.844.211 15.843.211-15-.992c-8.25-.546-15.363-1.343-15.808-1.771-.935-.903-2.861-23.615-3.058-36.064l-.134-8.5 4.5.272c2.475.149 15.975.97 30 1.825 47.458 2.891 57.43 3.238 94 3.267 42.158.035 57.612-.813 99-5.428 17.756-1.979 24.317-2.928 34-4.913 4.125-.846 9.975-1.984 13-2.529 7.839-1.411 34.137-7.798 34.788-8.448 1.022-1.023-3.275-.448-11.788 1.576-7.55 1.795-14.849 3.307-40.5 8.39-14.582 2.89-19.445 3.591-35 5.045-8.8.823-20.317 1.909-25.594 2.414-5.277.505-23.502 1.417-40.5 2.027-25.304.908-37.975.828-69.906-.441-21.45-.852-45.075-2.022-52.5-2.601a2702.937 2702.937 0 00-24-1.754l-10.5-.702-.219-4c-.121-2.2-.691-9.625-1.268-16.5-.577-6.875-1.728-23.3-2.558-36.5-.83-13.2-1.89-29.85-2.355-37-.731-11.251-.631-13.244.743-14.816 1.45-1.66 1.443-2.367-.092-8.217-3.662-13.963-14.505-25.236-30.751-31.97-3.575-1.481-7.932-3.774-9.683-5.095-4.326-3.264-10.57-3.338-12.026-.142M583 74.105c-4.126 1.782-5.365 3.099-9.735 10.346-1.3 2.156-1.685 12.2-.664 17.306.331 1.654 2.469 5.023 4.75 7.485 7.268 7.845 18.243 8.565 26.051 1.71 4.75-4.171 6.847-9.161 6.879-16.371.045-10.207-4.049-17.203-12.114-20.702-5.382-2.334-9.376-2.275-15.167.226m.192 3.919c-6.723 4.099-9.335 16.917-5.192 25.476 3.849 7.95 14.572 10.917 21.276 5.886 5.178-3.885 7.224-8.222 7.224-15.313 0-5.617-.426-7.201-2.926-10.888-1.61-2.374-4.175-4.961-5.701-5.75-3.994-2.066-10.773-1.794-14.681.589M362.727 97.101c-2.439 1.409-7.458 12.183-8.92 19.149-.664 3.162-1.567 5.75-2.007 5.75-.44 0-.8-2.535-.8-5.634 0-13.695-6.781-22.686-12.414-16.461-4.019 4.441-6.187 19.267-2.996 20.491 2.743 1.053 3.407-.311 3.51-7.205.122-8.194.993-11.585 3.078-11.987 3.074-.592 3.822 5.273 3.822 29.945 0 24.219.179 25.366 3.604 23.086.607-.404 1.422-4.335 1.811-8.735 1.037-11.72 4.326-28.063 7.145-35.5 5.645-14.892 6.625-12.437 6.185 15.5-.191 12.1-.178 22.787.028 23.75.205.963 1.208 1.75 2.228 1.75 1.523 0 1.961-1.03 2.448-5.75 1.857-18.002 8.725-44.25 11.578-44.25 1.341 0 1.663 7.113 1.179 26.016-.396 15.461-.232 18.717.992 19.733 1.152.957 1.818.953 3.109-.016 1.433-1.076 1.659-4.193 1.777-24.543.125-21.64.002-23.41-1.725-24.718-5.215-3.95-9.76 1.065-13.847 15.278-1.285 4.47-2.314 2.085-2.659-6.167-.194-4.63-.578-8.624-.853-8.876-1.309-1.2-4.68-1.526-6.273-.606m699.773 1.712c-8.065 3.436-17.584 8.436-17.06 8.961.57.569 7.34-1.975 11.56-4.344 1.375-.772 4.412-2.33 6.75-3.463 3.941-1.911 5.302-3.043 3.5-2.913-.412.03-2.55.822-4.75 1.759m-618.111 1.617c-.996 2.595.399 4.739 2.857 4.39 1.652-.235 2.254-.987 2.254-2.82 0-1.833-.602-2.585-2.254-2.82-1.353-.192-2.496.308-2.857 1.25m593.409 9.538c-2.019 1.083-6.491 2.918-9.936 4.079-3.446 1.16-7.637 2.821-9.313 3.69-3.197 1.657-11.672 4.715-30.049 10.843-6.05 2.017-11.9 4.047-13 4.511-1.1.464-7.175 2.312-13.5 4.106-6.325 1.795-10.733 3.414-9.795 3.598 3.067.602 46.283-12.753 52.665-16.275 1.446-.798 5.745-2.376 9.553-3.506 3.807-1.131 7.407-2.433 8-2.894.592-.462 3.327-1.631 6.077-2.6 6.526-2.298 15.5-6.355 15.5-7.007 0-1.067-2.66-.443-6.202 1.455m-576.884 4.852c-2.656 1.139-7.964 7.866-8.967 11.366-1.666 5.808-1.15 8.764 2.093 12.008 2.545 2.545 3.557 2.937 6.214 2.405 3.406-.681 8.746-5.13 8.746-7.286 0-1.854-.565-1.657-3.409 1.187-4.774 4.774-8.952 2.451-8.841-4.914.075-4.938 2.37-10.045 5.195-11.556 2.93-1.569 3.355-1.28 2.729 1.852-.736 3.677.169 4.57 2.495 2.465 4.448-4.026-.508-9.99-6.255-7.527m-17.724 1.869c-.52.996-1.523 5.748-2.229 10.56-.971 6.623-1.006 9.357-.143 11.25 1.821 3.998 5.606 2.968 8.655-2.356.614-1.073.123-1.213-2.348-.67-2.753.604-3.125.427-3.125-1.49 0-1.196.705-4.602 1.568-7.567 1.71-5.885 1.606-10.541-.25-11.15-.651-.213-1.608.427-2.128 1.423m-16.805 1.527c-5.973 4.586-5.936 7.272.17 12.275 3.248 2.662 4.467 4.346 4.25 5.871-.325 2.275-2.078 2.467-9.937 1.085-2.227-.391-3.894-.214-4.309.457-.372.603-1.168 1.096-1.769 1.096-.757 0-.905-3.066-.483-10 .504-8.267.363-10-.814-10-2.323 0-3.493 3.46-3.493 10.329 0 5.789-.31 6.791-2.984 9.654-1.641 1.757-3.554 3.002-4.25 2.768-1.301-.439-1.67-9.145-.728-17.216.367-3.146.115-4.036-1.221-4.31-.925-.19-2.149.526-2.719 1.592-1.533 2.865-1.605 19.868-.091 21.691 1.695 2.042 5.987 1.836 8.934-.428 2.155-1.657 2.692-1.711 4.596-.464 1.919 1.258 2.448 1.184 4.809-.674 2.412-1.897 2.795-1.944 4.225-.514 2.675 2.675 8.45 1.694 12.22-2.076.732-.732 1.573-2.821 1.868-4.641.485-2.987.09-3.676-4.061-7.077-2.529-2.072-4.598-4.382-4.598-5.134 0-2.161 3.835-2.838 6.434-1.135 3.561 2.333 5.132-.656 1.995-3.794-2.166-2.166-4.643-1.967-8.044.645M554.3 121c0 3.025.187 4.263.416 2.75.229-1.513.229-3.987 0-5.5s-.416-.275-.416 2.75m35.873 1.523c-8.531 3.705-12.641 15.326-8.731 24.684 2.169 5.19 4.075 6.237 12.46 6.838 8.018.576 9.056.142 9.083-3.795.02-2.933 2.817-2.96 3.898-.037l.819 2.213 1.315-2.457c.723-1.352 1.487-5.61 1.698-9.463.325-5.946.032-7.608-1.936-10.986-2.527-4.335-8.815-8.5-12.779-8.464-1.375.012-3.997.672-5.827 1.467m-36.094 11.06c.048 1.165.285 1.402.604.605.289-.722.253-1.585-.079-1.917-.332-.332-.568.258-.525 1.312m-245.92 8.018c-2.713 1.9-4.44 5.939-3.631 8.489.319 1.003 3.031 3.227 6.026 4.941 2.995 1.714 5.446 3.337 5.446 3.608 0 .271-.49 1.408-1.089 2.527-.937 1.751-1.703 1.942-5.5 1.373-3.991-.599-4.411-.467-4.411 1.381 0 1.373.865 2.259 2.64 2.705 4.045 1.015 7.65-.774 9.86-4.893 1.841-3.431 1.878-3.946.466-6.48-.843-1.513-3.318-3.682-5.499-4.819-4.407-2.297-5.376-4.434-2.929-6.465 1.325-1.099 2-1.113 3.661-.076 2.658 1.66 4.736-.061 2.836-2.35-1.652-1.991-4.984-1.966-7.876.059m766.341 3.638c-5.23 2.812-22.035 10.554-26.5 12.209-1.925.713-5.525 2.227-8 3.363-2.475 1.137-9.675 3.964-16 6.281-6.325 2.318-11.95 4.537-12.5 4.93-.55.394-3.475 1.286-6.5 1.983-3.025.696-7.075 2.031-9 2.965-1.925.934-6.574 2.508-10.332 3.497-5.834 1.537-7.392 1.614-10.677.53-3.48-1.149-4.588-1.009-11.668 1.466A1442.256 1442.256 0 01948 187.708c-4.125 1.38-7.967 3.09-8.537 3.801-3.067 3.818-27.865 5.887-28.776 2.4-.861-3.29-17.755-12.405-25.831-13.936-7.725-1.465-12.341.096-14.855 5.025-2.336 4.578-2.707 12.517-.623 13.317 2.102.806 3.622-1.339 3.622-5.111 0-4.78 3.374-9.204 7.02-9.204 4.739 0 25.808 9.95 25.938 12.25.023.412-1.195.756-2.708.764-4.185.02-7.25 1.076-7.25 2.496 0 2.414-7.319 3.46-10.878 1.555-2.41-1.29-16.037.851-18.801 2.954-2.098 1.596-2.111 1.716-.355 3.22 1.004.859 2.08 3.294 2.393 5.412.313 2.117 1.293 8.799 2.178 14.849 2.292 15.667 2.243 15.5 4.482 15.5 2.916 0 2.665-4.888-1.577-30.75-.696-4.243-.692-4.25 2.43-4.25 1.72 0 3.128.471 3.128 1.048 0 .576 1.195 2.155 2.656 3.509 2.283 2.116 2.503 2.798 1.568 4.852-3.509 7.701 7.008 17.228 18.066 16.365 2.866-.223 5.979-.755 6.918-1.181 1.309-.594 1.857-.181 2.345 1.763 1.092 4.35 8.481 7.768 8.419 3.894-.016-.963-1.101-9.17-2.411-18.239-1.311-9.07-2.172-16.832-1.913-17.25.259-.419 2.048-.761 3.977-.761 4.23 0 7.71-1.685 7.047-3.412-.34-.887 1.924-1.662 7.673-2.626 4.485-.752 8.605-1.219 9.155-1.038 2.657.877 6.592.177 12.675-2.257 3.667-1.467 7.063-2.667 7.548-2.667.911 0 4.291 8.51 4.282 10.781-.003.705-.567 1.464-1.255 1.686-.687.222-5.182 1.571-9.988 2.997-7.318 2.172-8.835 2.98-9.335 4.971-.837 3.334 1.145 6.488 5.121 8.15 6.795 2.839 11.078.662 10.135-5.15-.464-2.862-.227-3.277 2.148-3.756 1.468-.296 3.42-.83 4.338-1.185 1.33-.515 2.122.598 3.903 5.484 1.627 4.463 2.994 6.522 5.025 7.572 4.072 2.106 4.432.398 1.543-7.328-1.382-3.697-3.488-10.097-4.681-14.222-1.192-4.125-2.621-8.057-3.175-8.737-1.303-1.6-.277-4.263 1.642-4.263.991 0 2.184 2.426 3.566 7.25 1.142 3.988 2.677 8.375 3.411 9.75s2.331 5.542 3.55 9.26c1.265 3.859 3.013 7.187 4.071 7.753 4.034 2.159 3.544-1.086-3.071-20.356-2.803-8.164-4.882-15.4-4.62-16.082.261-.682 4.456-2.299 9.321-3.594 4.865-1.295 11.096-3.392 13.846-4.658 2.75-1.267 5.935-2.308 7.078-2.313 1.142-.006 4.967-1.199 8.5-2.653 3.532-1.453 10.697-4.323 15.922-6.377 20.494-8.057 46-19.808 46-21.194 0-1.196-1.128-.898-5.5 1.453m-784.577 2.684c-2.145 2.145-2.923 3.879-2.923 6.513 0 3.39.306 3.724 5.512 6.027 9.385 4.15 8.181 8.7-2.14 8.085-4.417-.264-5.601.012-6.39 1.486-2.576 4.813-6 6.136-9.416 3.638-1.71-1.251-1.606-1.603 1.809-6.077 4.278-5.604 5.285-8.851 3.773-12.169-1.597-3.506-6.367-3.334-8.966.324-6.372 8.964-3.313 24.25 4.852 24.25 2.671 0 9.034-4.997 10.236-8.037.504-1.276.706-1.278 1.586-.013.573.823 2.607 1.45 4.706 1.45 4.086 0 7.891-3.374 9.061-8.035.823-3.279-2.132-7.349-6.384-8.794-4.087-1.389-5.659-3.033-4.87-5.091.51-1.328 1.426-1.521 4.633-.98 3.585.606 3.998.464 3.998-1.377 0-1.97-2.617-4.123-5.011-4.123-.629 0-2.458 1.315-4.066 2.923m287.808 3.157c.354 1.352.807 1.806 1.057 1.057.24-.722-.038-1.787-.62-2.369-.742-.742-.872-.351-.437 1.312m.555 5.617c-.306.798-.158 10.755.329 22.127l.885 20.676 4.89.31c2.689.171 5.22-.054 5.625-.5.405-.445.312-9.36-.206-19.81-.937-18.916-.953-19.01-3.625-21.171-3.438-2.781-7.162-3.55-7.898-1.632m-305.309 1.345c-.601 1.124-.954 3.622-.785 5.552.281 3.199.469 3.391 2.124 2.173 2.495-1.836 3.591-9.767 1.351-9.767-.878 0-2.088.919-2.69 2.042m320.785-1.335c1.244.239 3.044.23 4-.02s-.062-.446-2.262-.435c-2.2.011-2.982.216-1.738.455M420 157.652c-1.375.21-7.9 1.102-14.5 1.984-6.6.883-12.45 1.947-13 2.366-.55.418-2.575.984-4.5 1.257-8.066 1.142-26.39 4.879-27.907 5.691-.902.483-4.554 1.626-8.116 2.541-5.559 1.428-10.061 3.509-7.591 3.509 1.221 0 13.875-3.176 16.114-4.045 5.552-2.154 12.84-3.915 20.5-4.953 4.675-.634 9.175-1.423 10-1.753 2.53-1.014 13.937-3.141 25.5-4.755 6.05-.845 11.675-1.699 12.5-1.899 1.983-.48-5.791-.43-9 .057m187.48.598c-.619 1.695.902 41.465 1.613 42.176.311.311 2.684.856 5.273 1.211l4.708.645-.599-20.391c-.33-11.215-.805-21.403-1.056-22.641-.393-1.933-1.092-2.25-4.969-2.25-2.7 0-4.696.502-4.97 1.25m-361.813 2.417c-1.443 1.442-.538 4.289 1.996 6.283 2.156 1.695 2.633 2.852 2.507 6.072-.085 2.188.243 3.978.73 3.978 1.133 0 2.1-2.515 2.1-5.459 0-1.263.675-2.856 1.5-3.541 1.312-1.089 1.5-.246 1.5 6.723 0 6.448.349 8.282 1.829 9.622 1.006.91 2.541 1.655 3.411 1.655 1.871 0 7-5.781 6.489-7.313-.564-1.691-2.729-2.002-2.729-.393 0 .804-.668 2.015-1.483 2.692-2.235 1.855-3.517-2.539-3.517-12.051 0-8.411-.698-9.424-4.267-6.194-1.838 1.664-2.005 1.641-3.739-.5-1.749-2.16-4.946-2.956-6.327-1.574m350.448.066l-3.385.414.726 19.176c.4 10.548.888 19.342 1.086 19.544.197.202 2.406.598 4.909.88l4.549.513-.004-6.38c-.002-3.509-.297-12.792-.655-20.63-.558-12.201-.881-14.227-2.247-14.09-.876.088-3.117.346-4.979.573m-415.565 4.48c-6.644 7.761-11.268 20.562-9.343 25.859.485 1.336 1.785 3.123 2.89 3.972 2.008 1.544 2.008 1.546-.15 6.5-4.581 10.516-3.298 23.232 2.57 25.462 6.372 2.423 13.187.342 20.384-6.227 4.591-4.189 9.099-9.904 9.099-11.535 0-.474-.611-1.697-1.358-2.718-1.255-1.717-1.741-1.311-6.424 5.358-9 12.815-16.44 16.445-21.248 10.366-3.033-3.836-2.176-9.672 3.03-20.631 4.951-10.421 4.92-12.248-.202-11.799-2.917.255-3.887-.118-4.817-1.856-3.164-5.911 7.318-25.451 11.701-21.813.841.698 1.318 3.425 1.318 7.541 0 6.114.116 6.431 2.25 6.128 2.037-.29 2.278-.942 2.541-6.882.242-5.445-.068-7.021-1.822-9.25-3.085-3.922-6.14-3.474-10.419 1.525m54.41 5.827c-1.122 1.122-2.543 3.259-3.157 4.75-.888 2.152-1.203 2.35-1.534.96-.493-2.074-3.826-2.346-4.583-.373-.661 1.722.291 5.971 5.346 23.859 4.193 14.838 5.187 16.945 7.089 15.043.829-.829.557-2.979-1.038-8.233-2.247-7.398-2.117-9.023.726-9.079 2.073-.041 5.109-2.563 7.441-6.182 1.209-1.875 1.75-4.726 1.75-9.215 0-5.845-.313-6.857-3.104-10.035-3.531-4.022-5.997-4.434-8.936-1.495m-1.033 7.21c-1.347 4.98-.501 15.767 1.328 16.929 1.864 1.184 2.554 1.012 4.745-1.179 2.582-2.582 2.874-14.307.443-17.777-2.569-3.668-5.196-2.851-6.516 2.027m669.824-3.561c-2.251.588-3.347 4.888-1.74 6.824 2.588 3.119 8.989.974 8.989-3.013 0-1.379-.837-2.877-1.934-3.465-2.012-1.077-2.418-1.103-5.315-.346M329 178.117c-4.675 1.67-10.949 3.694-13.943 4.497-2.993.804-5.93 1.866-6.526 2.361-.597.494-5.4 2.462-10.676 4.371-5.275 1.91-10.438 3.956-11.473 4.548-1.035.593-7.282 3.624-13.882 6.737-6.6 3.114-11.453 5.853-10.784 6.087.669.234 5.844-1.78 11.5-4.476 5.656-2.697 11.859-5.503 13.784-6.237 1.925-.734 4.259-1.979 5.187-2.768.928-.788 5.203-2.479 9.5-3.756 4.297-1.277 9.596-3.258 11.774-4.402 2.179-1.143 4.467-2.079 5.083-2.079 2.003 0 19.858-6.002 20.872-7.016 1.709-1.709-1.5-1.051-10.416 2.133m-111.902 4.032c-.604 1.732-1.098 4.207-1.098 5.5 0 2.966-2.145 3.043-5.968.216-3.918-2.896-8.554-.922-4.782 2.037.688.539 2.894 2.469 4.904 4.289l3.654 3.309-1.562 6.259c-.858 3.443-1.276 6.544-.928 6.893 1.27 1.269 3.312-1.683 4.576-6.617l1.296-5.053 2.981 2.509c3.189 2.682 6.26 3.239 7.43 1.346.678-1.098-2.245-4.101-7.726-7.937l-2.286-1.6 1.727-6.211c.949-3.416 1.465-6.634 1.146-7.15-1.074-1.738-2.259-.959-3.364 2.21m586.559.113c-2.673 1.954-.012 4.814 4.888 5.254 3.087.277 4.67 1.177 7.213 4.096 4.193 4.813 8.612 12.351 7.748 13.217-.369.369-6.466.828-13.548 1.02-9.482.258-13.185.719-14.04 1.75-.891 1.073-4.283 1.401-14.481 1.401-7.801 0-13.575-.414-13.937-1-.875-1.415-22.191-1.309-23.071.115-.453.733-2.273.874-5.309.41-6.164-.942-45.573-1.645-44.726-.798.365.366 6.462.921 13.547 1.234 10.266.454 13.273.922 14.8 2.304 1.054.954 2.622 1.735 3.483 1.735.862 0 2.477 1.839 3.589 4.087 1.626 3.287 1.822 4.661 1.001 7.018-1.403 4.022-.384 7.248 3.444 10.908 5.118 4.894 8.449 6.27 13.908 5.745 4.03-.387 4.834-.187 4.834 1.202 0 1.976 5.337 7.37 6.319 6.387.375-.374.681-8.255.681-17.514V214h5v17.031c0 14.281.244 17.126 1.513 17.612 3.701 1.42 4.218-1.01 3.716-17.475-.631-20.71-.927-20.17 11.056-20.163 5.068.003 13.603.296 18.965.651l9.75.646V225h-3.354c-4.208 0-8.757 3.859-7.993 6.78.987 3.774 6.837 8.404 10.759 8.515 6.253.177 6.962-1.439 7.029-16.022l.059-12.773 5.604-.296 5.604-.295.719 15.731c.582 12.729 1.054 16.157 2.474 17.961 1.142 1.452 2.216 1.945 3.078 1.412 1.06-.655 1.182-4.213.613-17.882l-.709-17.063 2.808-.591c1.545-.324 4.834-1.107 7.309-1.738l4.5-1.148-3.5-.883c-1.925-.486-5.732-1.182-8.459-1.546-4.879-.651-5.028-.777-9.109-7.662-4.359-7.354-9.57-13.433-13.164-15.356-2.835-1.518-8.46-1.455-10.611.118m268.101 18.061c-10.508 5.064-15.078 8.458-6.354 4.718 10.212-4.377 20.95-9.961 19.096-9.93-1.1.019-6.834 2.364-12.742 5.212m-491.813 2.427c-.198 2.687.408 25.682.929 35.25l.626 11.5 4 .526c7.493.985 7.758.691 7.114-7.917-.314-4.185-.856-14.921-1.206-23.859l-.636-16.25h-5.386c-2.962 0-5.411.338-5.441.75m14.646.103c-.962 1.556 1.517 45.497 2.646 46.897 1.143 1.417 8.36 1.711 9.187.373.728-1.179-1.446-45.449-2.273-46.27-1.218-1.211-8.931-2.018-9.56-1m14.878 23.752c.5 16.105 1.115 24.135 1.886 24.63.63.404 3.058.741 5.395.75L621 252l-.009-9.75c-.009-10.523-1.739-37.331-2.455-38.047-.24-.241-2.546-.675-5.123-.966l-4.685-.528.741 23.896m279.973-20.887c-3.814 3.469-3.516 6.282.663 6.282 1.628 0 4.52.652 6.427 1.449 3.979 1.663 4.704 4.551 1.142 4.551-2.558 0-6.674 3.771-6.674 6.114 0 3.955 4.879 4.986 10.643 2.251 5.112-2.425 6.507-5.904 5.728-14.281-.729-7.843-.777-7.888-9.288-8.649-5.06-.452-5.869-.239-8.641 2.283m-264.653-.916c-1.45.279-1.583 2.02-1.179 15.506.25 8.356.701 18.851 1.002 23.324l.548 8.132 3.67.607c8.052 1.332 8.17 1.258 8.173-5.121.004-6.858-1.907-36.84-2.542-39.894-.343-1.65-1.321-2.228-4.242-2.507-2.088-.199-4.531-.22-5.43-.047m55.961 1.86c.688.278 1.813.278 2.5 0 .688-.277.125-.504-1.25-.504s-1.937.227-1.25.504m-427.25 2.666c-13.372 7.056-46.133 26.369-49.827 29.373-1.554 1.265-3.364 2.299-4.022 2.299-.657 0-2.76 1.265-4.673 2.81-1.913 1.546-5.245 3.882-7.405 5.191-2.16 1.31-3.422 2.549-2.804 2.755.618.206 3.691-1.342 6.83-3.441 9.543-6.379 34.769-22.214 36.947-23.192 1.126-.505 5.851-3.149 10.5-5.876 4.65-2.726 10.929-6.179 13.954-7.673 3.025-1.494 5.928-3.134 6.45-3.645 1.661-1.625-1.733-.827-5.95 1.399m152-1.177c-2.2.522-5.536.668-7.414.323-2.258-.414-6.828.276-13.5 2.04-14.09 3.725-28.805 8.481-30.586 9.886-3.477 2.744-12.815 4.897-18.393 4.241-3.411-.4-6.463-.208-8.032.507-2.146.978-3.754.669-10.607-2.039-12.298-4.86-20.968-4.441-20.968 1.013 0 1.389.727 1.878 2.79 1.878 3.537 0 14.409 2.803 15.641 4.032.573.573-1.633 2.092-5.75 3.959-3.675 1.666-6.681 3.609-6.681 4.318 0 .709-1.687 1.873-3.75 2.586-3.582 1.239-10.053 4.209-13.25 6.082-2.706 1.585-5.432 2.27-10 2.513-4.188.222-10.983 3.749-28.459 14.774-7.719 4.869-12.252 7.897-13.541 9.045-1.536 1.368-9.148 6.499-12.206 8.227-3.237 1.829-21.428 14.412-23.761 16.435-4.792 4.157-.352 1.794 10.754-5.721 20.978-14.196 25.046-16.551 29.213-16.911 1.925-.166 4.806-.423 6.403-.571 2.513-.232 3.215.318 5.226 4.094l2.323 4.362-2.525-.483c-3.444-.658-6.901 2.192-6.021 4.964.774 2.438 3.242 3.554 14.094 6.374 4.4 1.144 10.454 2.942 13.454 3.996 3.357 1.18 5.811 1.56 6.383.988 1.792-1.792-.169-3.681-4.98-4.794-2.671-.618-6.16-1.62-7.753-2.227l-2.895-1.103 2.32-2.47c1.276-1.358 2.701-2.469 3.167-2.469.466 0 2.646-1.191 4.846-2.646 2.199-1.456 4.159-2.468 4.355-2.25.197.218 1.302 2.27 2.457 4.562 1.574 3.121 2.876 4.335 5.195 4.845 1.702.373 3.394.38 3.76.014.762-.763-4.804-11.684-9.433-18.506-1.718-2.532-4.131-6.579-5.362-8.992-2.142-4.198-2.161-4.446-.436-5.708 2.878-2.104 4.209-1.573 6.089 2.431 1.745 3.716 8.625 15.289 13.37 22.488 2.41 3.656 5.194 4.815 6.499 2.704.359-.581-.514-2.822-1.941-4.978-1.427-2.157-2.595-4.186-2.595-4.509 0-.324-1.074-2.021-2.386-3.772s-3.36-4.983-4.552-7.183a237.934 237.934 0 00-4.549-7.951c-1.31-2.174-2.176-4.285-1.925-4.691.402-.651 4.853-2.869 19.913-9.921 2.319-1.086 6.009-1.834 8.78-1.778 3.123.063 5.403-.468 6.578-1.532.989-.895 2.229-1.627 2.754-1.627 1.073 0 3.777 4.264 5.383 8.489l1.061 2.791-4.365-.599c-4.961-.68-8.692 1.183-8.692 4.341 0 2.772 2.099 3.545 16.003 5.9 6.873 1.163 14.901 2.752 17.838 3.53 5.896 1.562 8.42 1.141 7.945-1.324-.23-1.194-2.869-2.122-10.03-3.526-9.255-1.816-9.69-2.016-9.143-4.196.551-2.194-2.008-10.402-5.117-16.414-1.429-2.762-1.378-2.9 1.767-4.791 5.861-3.524 21.925-8.459 28.237-8.674 3.3-.113 7.158-.531 8.573-.93 2.358-.664 2.676-.378 3.821 3.443.687 2.293 1.49 4.796 1.784 5.564.329.858-.12 1.396-1.167 1.396-2.886 0-7.511 3.949-7.511 6.413 0 2.54 1.937 4.554 6.7 6.966 4.162 2.108 6.603 2.049 8.645-.208 2.291-2.531 2.079-6.232-.947-16.518-1.432-4.866-2.22-9.192-1.751-9.612.469-.421 2.774-1.231 5.122-1.801 5.203-1.264 4.826-1.849 9.201 14.26 1.793 6.6 3.953 12.787 4.8 13.75 1.62 1.841 3.777 2.292 4.599.962.519-.84-4.261-19.892-6.748-26.896-1.132-3.187-1.204-4.398-.303-5.082 1.825-1.386 14.429-5.234 17.144-5.234 1.331 0 2.698-.45 3.038-1 .747-1.209-2.535-1.147-8 .151m31.656.731c-1.028.652-1.177 2.412-.633 7.485l.71 6.633 3.633-.118c1.999-.065 4.982-.407 6.63-.759 2.786-.596 2.975-.921 2.712-4.632-.659-9.266-.815-9.493-6.537-9.476-2.844.009-5.776.399-6.515.867m302.186 2.567c.339.884-.226 1.697-1.451 2.086-1.469.466-1.925 1.351-1.699 3.301.254 2.194.879 2.719 3.545 2.976 3.071.297 6.73 3.624 5.742 5.222-.241.389-1.772.975-3.404 1.301-3.242.648-5.416 3.614-4.464 6.093.424 1.105 1.931 1.572 5.073 1.572 3.607 0 5.034-.564 7.393-2.923 2.682-2.683 2.923-3.508 2.923-10.031 0-5.884-.301-7.208-1.75-7.684-.962-.317-3.168-1.203-4.901-1.969-4.225-1.868-7.734-1.84-7.007.056m-185.263 3.134c.048 1.165.285 1.402.604.605.289-.722.253-1.585-.079-1.917-.332-.332-.568.258-.525 1.312M1021 222.858l-6.5 2.697.325 4.648c.355 5.079-1.065 8.797-3.36 8.797-1.104 0-1.465-1.316-1.465-5.333 0-2.934-.263-5.597-.585-5.919-.764-.764-6.536 1.163-8.25 2.754-1.094 1.016-1.127 3.291-.183 12.619.633 6.258 1.126 15.382 1.095 20.275l-.056 8.896 7.539-.638c4.147-.35 8.446-1.122 9.554-1.715 1.473-.788 2.399-.758 3.45.114 1.77 1.469 1.77 1.524.072-11.348-1.039-7.883-1.045-10.127-.031-11.5 2.179-2.948 3.566.017 4.275 9.142.365 4.691.947 8.814 1.294 9.161.347.347 1.589.037 2.759-.689 1.77-1.097 2.27-1.091 2.973.038 1.658 2.664 2.149-.753 1.085-7.556-1.398-8.939-1.861-10.301-3.499-10.301-2.227 0-2.637-1.712-.841-3.508 1.531-1.531 1.553-2.551.26-12.252-.776-5.82-1.861-10.694-2.411-10.83-.55-.137-3.925.965-7.5 2.448m-18.471 1.392c-1.279 1.817-1.323 2.306-.228 2.54 2.597.556 6.693-1.642 6.073-3.258-.865-2.253-4.026-1.865-5.845.718m-505.947 5.311c-1.566 1.565-3.891 8.775-5.023 15.567-.696 4.179-.343 4.376 8.515 4.759 7.496.325 8.362-.792 6.413-8.275-2.18-8.372-5.094-13.539-7.666-13.597-.373-.008-1.381.688-2.239 1.546m523.085.106c-.367.366-.667 1.716-.667 3 0 2.723 3.015 3.225 5 .833 2.033-2.45-2.079-6.088-4.333-3.833M806.2 231.2c-1.996 1.996-1.423 3.971 1.05 3.62 1.446-.206 2.364-1.124 2.57-2.57.351-2.473-1.624-3.046-3.62-1.05m-434 7c-1.791 1.791-1.456 3.995.55 3.613.962-.183 1.894-1.341 2.07-2.573.351-2.462-.758-2.902-2.62-1.04m679.004 1.061c-.869 1.054-1.623 6.974-1.301 10.212.193 1.931 2.947-3.159 3.604-6.66.707-3.767-.539-5.689-2.303-3.552m-558.857 13.277c-1.589 4.142 2.772 18.839 6.272 21.132 2.236 1.465 2.582 1.458 4.288-.086 2.348-2.124 5.093-11.774 5.093-17.9V251h-7.531c-5.856 0-7.663.342-8.122 1.538m150.949 3.302c-.693.443-.751 4.278-.178 11.66.469 6.05 1.223 17.187 1.676 24.75.699 11.667 1.105 13.956 2.685 15.111 1.075.786 6.115 1.665 11.941 2.082 16.724 1.196 15.85 1.26 16.222-1.179.256-1.677-.047-2.046-1.29-1.569-1.123.431-1.467.188-1.113-.786.281-.775.969-1.313 1.528-1.195.559.118 1.333-1.907 1.72-4.5.977-6.549 2.683-10.23 6.518-14.065 2.632-2.632 3.813-3.163 5.893-2.651 6.463 1.591 11.947 11.314 13.658 24.215l.663 4.995 13.14.652c25.04 1.241 67.406 1.944 69.269 1.148 1.03-.44 4.394-.864 7.477-.943 6.82-.176 9.988-2.065 13.958-8.325 3.553-5.603 3.625-6.887.573-10.185-1.3-1.405-2.875-4.085-3.5-5.954-1.594-4.77-1.414-15.868.353-21.692.819-2.7 1.494-5.182 1.5-5.516.006-.334-5.277-.41-11.739-.17-11.501.428-50.408-.812-83.25-2.652-9.075-.508-26.4-1.428-38.5-2.044-12.1-.615-23.389-1.283-25.086-1.484-1.697-.2-3.55-.067-4.118.297m-84.217 3.743c.048 1.165.285 1.402.604.605.289-.722.253-1.585-.079-1.917-.332-.332-.568.258-.525 1.312m250.855 2.997c-.842 1.014-1.465 5.58-1.739 12.753-.345 9.015-.097 11.946 1.284 15.171 1.645 3.841 1.746 3.905 2.62 1.649 1.773-4.582 3.33-25.916 2.089-28.639-1.325-2.909-2.416-3.149-4.254-.934m-552.707 3.104c-6.465 3.824-7.313 5.17-4.654 7.377.865.718 2.461 3.046 3.547 5.175 1.551 3.039 2.39 3.737 3.915 3.253 3.252-1.032 10.965-5.606 10.965-6.503 0-.732-6.973-12.986-7.39-12.986-.085 0-2.958 1.658-6.383 3.684m629.751 9.356c-.871 1.628-.655 2.746 1.066 5.531 2.058 3.329 2.125 5.218.353 9.836-.347.906-.099 1.593.576 1.593.654 0 1.885-1.774 2.737-3.943.851-2.168 2.165-4.179 2.919-4.468 1.709-.656 1.699-.242-.14 5.82-1.913 6.305-1.887 10.05.082 12.02 2.326 2.325 4.219 1.935 7.751-1.597 3.414-3.414 2.179-5.501-1.359-2.299-3.618 3.274-3.678.059-.317-16.915.559-2.822.499-2.868-2.931-2.224-3.237.607-3.582.428-4.556-2.369-1.246-3.573-4.516-4.095-6.181-.985m24.512 1.27c-5.58 5.58-7.127 17.118-2.92 21.768 2.786 3.077 8.919 2.587 12.507-1.001 1.608-1.608 2.923-3.673 2.923-4.589 0-1.354-.575-1.182-3.077.923-3.348 2.817-5.02 3.143-7.989 1.554-2.829-1.514-2.407-2.868 2.092-6.719 4.914-4.206 7.323-8.558 6.391-11.546-1.482-4.751-5.412-4.905-9.927-.39M348 274.669c-.825.28-2.85 1.107-4.5 1.837s-6.15 2.322-10 3.537c-14.451 4.563-58.5 24.23-58.5 26.119 0 1.245.476 1.094 6.227-1.981 2.9-1.55 13.373-6.316 23.273-10.589 9.9-4.274 19.908-8.631 22.239-9.682 2.332-1.05 4.594-1.91 5.028-1.91 1.364 0 16.594-5.04 19.733-6.53 2.899-1.376 2.915-1.423.5-1.368-1.375.031-3.175.286-4 .567m649.839 3.026c-1.619 1.95-.855 2.115 3.661.789l4-1.174-3.269-.485c-2.051-.304-3.687.02-4.392.87m-85.123 2.209c-.944 1.598-1.716 4.128-1.716 5.623 0 2.353.21 2.544 1.566 1.418 1.946-1.615 4.434-6.326 4.434-8.395 0-2.536-2.442-1.764-4.284 1.354m68.49-1.336c-2.968 2.079-1.939 3.433 2.603 3.428 3.236-.003 10.191-3.062 10.191-4.481 0-1.274-10.733-.39-12.794 1.053m-107.136 7.07c-2.199 2.795-5.07 11.245-5.07 14.921 0 1.208.645 2.731 1.433 3.385 4.804 3.987 12.118-12.309 8.532-19.01-1.385-2.588-2.423-2.439-4.895.704m-188.971 5.963c-1.126 1.431-2.396 4.244-2.823 6.25-1.357 6.379-.769 22.25 1.041 28.086 1.703 5.491 5.001 10.063 7.259 10.063 2.304 0 5.542-7.296 6.669-15.027 1.401-9.608-.673-21.999-4.699-28.083-3.019-4.562-4.65-4.844-7.447-1.289M522 303.164c-16.775.465-32.075 1.136-34 1.491l-3.5.646 3 .634c1.65.349 8.175.319 14.5-.067 18.207-1.109 46.885-1 49.104.187 2.352 1.26 5.896.349 5.896-1.515 0-1.252-2.376-2.728-3.832-2.381-.367.088-14.393.54-31.168 1.005m-257.5 7.396c-3.3 1.887-8.25 4.572-11 5.967-2.75 1.395-8.6 4.777-13 7.515-4.4 2.738-10.025 6.174-12.5 7.634-2.475 1.461-5.4 3.442-6.5 4.403-1.1.961-4.093 2.852-6.651 4.202-4.759 2.513-5.172 2.801-10.349 7.244l-3 2.574 4-1.952c2.2-1.074 5.125-2.939 6.5-4.145 1.375-1.206 3.85-2.883 5.5-3.727 1.65-.844 6.6-3.873 11-6.73 9.159-5.948 17.121-10.705 25.303-15.117 10.735-5.789 17.197-9.619 17.756-10.523.973-1.575-.883-.877-7.059 2.655m181-1.974c-6.6.736-15.6 2.052-20 2.924-4.4.873-14.026 2.7-21.39 4.062-7.365 1.361-16.803 3.59-20.973 4.952-4.17 1.362-8.302 2.476-9.183 2.476-2.941 0-35.361 10.611-42.241 13.826-2.317 1.083-4.888 2.24-5.713 2.573-.825.332.3.346 2.5.03 2.2-.316 6.25-1.624 9-2.908 11.344-5.296 52.681-17.027 70.726-20.071 4.551-.768 11.874-2.047 16.274-2.842 11.454-2.071 27.861-4.593 36-5.535 6.129-.709 6.378-.811 2-.818-2.75-.004-10.4.595-17 1.331M616 311c0 .55.675 1 1.5 1s1.5-.45 1.5-1-.675-1-1.5-1-1.5.45-1.5 1m-44.333 6.667c-.367.366-.667 1.131-.667 1.7 0 .626.466.567 1.183-.15.651-.651.951-1.416.667-1.7-.284-.284-.817-.217-1.183.15M313.5 343.358c-3.85 1.807-9.25 4.142-12 5.188-5.13 1.953-13.004 5.885-34 16.98-21.776 11.507-24.433 12.973-26.254 14.481-.992.821-3.688 2.526-5.992 3.789-4.207 2.305-12.164 7.36-17.754 11.279-1.65 1.156-5.137 3.414-7.75 5.016-2.613 1.602-4.75 3.625-4.75 4.495 0 1.212.878.907 3.75-1.3 2.063-1.585 5.088-3.725 6.724-4.754 1.636-1.029 3.436-2.25 4-2.712 1.499-1.228 15.697-10.284 18.689-11.92 1.407-.77 4.309-2.571 6.448-4.002 3.601-2.409 23.997-13.381 30.889-16.617 1.65-.774 3.675-1.825 4.5-2.335 4.22-2.608 24.324-12.006 30-14.024 3.575-1.271 6.725-2.627 7-3.014.275-.386 2.075-1.387 4-2.224 2.432-1.057 2.89-1.535 1.5-1.567-1.1-.025-5.15 1.434-9 3.241m334.429 71.392c-.326 3.47.464 21.828 2.078 48.25 1.058 17.325 2.639 50.625 3.513 74 1.487 39.803 2.292 57.144 5.99 129 .806 15.675 2.17 43.8 3.031 62.5 2.232 48.513 2.357 51 2.556 51 .099 0 .752 5.175 1.451 11.5 1.65 14.935 3.01 20.927 5.449 24 1.091 1.375 3.641 4.975 5.668 8 5.905 8.814 33.727 35.91 51.342 50 2.406 1.925 7.571 6.248 11.477 9.606 4.461 3.836 8.269 6.277 10.24 6.567l3.138.46-1.457-2.816c-.801-1.55-1.809-2.817-2.24-2.817-.703 0-5.834-4.104-14.774-11.818-1.71-1.475-5.43-4.479-8.268-6.676-2.837-2.197-4.67-4.157-4.073-4.356.596-.199 4.502.852 8.679 2.335 4.177 1.482 12.359 3.949 18.183 5.48 11.09 2.917 26.399 7.361 46.588 13.524 6.6 2.014 18.975 5.689 27.5 8.166a6218.303 6218.303 0 0120 5.838c2.475.733 11.7 3.367 20.5 5.852 8.8 2.486 18.019 5.242 20.487 6.126 2.467.884 8.092 2.514 12.5 3.623 4.407 1.108 10.263 2.834 13.013 3.835s9.95 3.062 16 4.58c6.05 1.518 11.45 3.085 12 3.483.55.398 4.019 1.524 7.709 2.503l6.71 1.78.488 4.112c.268 2.262.982 17.838 1.586 34.613 2.799 77.714 5.051 126.444 5.883 127.276 1.018 1.018 4.482-.496 7.624-3.33 1.1-.992 6.532-4.874 12.072-8.625 9.354-6.335 21.947-15.106 28.457-19.821 1.519-1.1 7.871-5.507 14.116-9.793 6.245-4.286 14.055-9.807 17.355-12.267 3.3-2.461 6.675-4.782 7.5-5.159 1.481-.677 9.846-6.338 25.866-17.502 4.515-3.146 9.767-6.46 11.671-7.364 2.524-1.197 3.463-2.29 3.463-4.029 0-1.312-.421-2.386-.937-2.386-.579 0-.709-31.798-.34-83.374.689-96.433 2.243-84.876-12.065-89.684-4.788-1.609-10.385-3.782-12.437-4.83-2.053-1.047-5.702-2.434-8.109-3.082-2.408-.648-6.68-2.214-9.495-3.478-2.814-1.265-7.592-3.091-10.617-4.058-3.025-.967-6.013-2.163-6.641-2.658-1.171-.923-14.775-6.145-33.359-12.805-5.775-2.069-14.1-5.214-18.5-6.988-9.765-3.939-30.078-11.842-33.5-13.034-1.375-.479-6.1-2.284-10.5-4.009-4.4-1.726-11.15-4.24-15-5.586-3.85-1.346-8.8-3.281-11-4.3-2.2-1.019-5.125-2.165-6.5-2.547-1.375-.382-5.65-1.984-9.5-3.56-7.827-3.203-20.453-7.94-31-11.629-3.85-1.347-8.157-3.086-9.57-3.864-2.453-1.35-11.717-4.877-31.43-11.967-4.95-1.78-11.799-4.431-15.22-5.892-3.421-1.46-6.712-2.655-7.313-2.655s-3.877-1.327-7.28-2.949c-9.938-4.736-11.247-4.822-13.639-.898-1.122 1.841-2.18 3.762-2.351 4.269-.175.519-3.074.225-6.634-.672l-6.323-1.592-3.917 4.303c-3.869 4.251-3.965 4.29-8.03 3.259-3.92-.996-4.235-.901-6.703 2.012-1.425 1.68-3.79 5.096-5.256 7.589l-2.667 4.534-4.333-1.301c-9.989-2.998-12.311-2.952-16.03.314-1.883 1.652-7.671 5.87-12.864 9.373-9.444 6.371-17.014 11.639-24.34 16.938-2.145 1.552-4.464 2.821-5.154 2.821-1.427 0-1.632-2.833-3.972-55-.851-18.975-2.193-44.625-2.982-57-.789-12.375-1.905-35.775-2.479-52-1.131-31.942-2.456-61.849-4.032-91-.55-10.175-1.661-34.025-2.47-53-2.024-47.514-2.254-50-4.615-50-1.043 0-1.928.337-1.967.75m181.071.558c-1.375.597-2.651 1.186-2.837 1.308-.448.298-4.953 20.953-6.627 30.384-.732 4.125-3.402 17.792-5.933 30.37-2.532 12.579-4.603 23.302-4.603 23.83 0 .535 1.265.681 2.863.33 1.809-.397 4.187.003 6.465 1.089 3.135 1.495 4.159 1.552 7.887.437 8.362-2.501 12.478-6.96 16.396-17.763 2.9-7.996 2.999-11.781.416-16.016-4.975-8.161-15.391-3.277-23.933 11.223-1.664 2.824-.458-5.032 2.002-13.04 1.02-3.322 3.261-12.772 4.979-21s3.462-15.635 3.876-16.46c1.519-3.033 3.334-14.114 2.447-14.94-.494-.46-2.023-.348-3.398.248m38.868.296c-2.339 1.237-2.823 2.474-4.359 11.144-.95 5.364-2.766 14.252-4.036 19.752-1.27 5.5-2.83 13.6-3.468 18-.637 4.4-2.249 12.357-3.582 17.681-1.333 5.325-2.423 11.287-2.423 13.25 0 3.993 2.812 7.569 5.952 7.569 1.893 0 9.048-6.447 9.048-8.153 0-1.393-2.663-.958-4 .653-.685.825-2.09 1.5-3.122 1.5-2.315 0-2.444-3.719-.434-12.5.756-3.3 3.196-14.224 5.422-24.277 2.227-10.052 4.299-18.681 4.604-19.175 1.045-1.69 5.518-25.258 4.965-26.154-.691-1.118-1.285-1.026-4.567.71M957 417.896c-12.686 4.045-26.422 15.486-34.456 28.701-4.911 8.077-8.544 15.871-8.544 18.33 0 .92-.519 2.192-1.153 2.826-.669.669-1.194 4.648-1.25 9.461-.191 16.422 7.407 25.786 20.925 25.786 6.052 0 14.074-3.112 18.392-7.135l2.364-2.201-.694 4.624c-.381 2.543-1.295 5.881-2.03 7.418a570.872 570.872 0 00-3.064 6.556c-3.566 7.759-11.522 11.548-21.49 10.233-10.561-1.393-12.468-1.22-12.807 1.163-.385 2.7 3.309 3.7 13.104 3.548 17.001-.264 30.648-13.309 34.256-32.746.915-4.928 2.23-11.36 2.922-14.292 1.508-6.388.302-7.569-4.346-4.26-2.34 1.667-3.083 3.121-3.632 7.117-.581 4.218-1.27 5.458-4.311 7.748-1.991 1.5-4.39 3.482-5.331 4.405-2.043 2.004-9.474 3.284-13.69 2.358-6.644-1.459-11.282-8.874-11.946-19.096-1.14-17.582 9.495-39.051 25.281-51.036 8.071-6.127 14.973-7.862 19.277-4.847 2.637 1.847 2.938 6.16.728 10.434-1.938 3.748-11.502 11.523-15.999 13.007-3.459 1.142-4.089 2.319-2.899 5.42 1.409 3.672 9.064.459 16.911-7.098 3.94-3.794 5.413-6.138 6.859-10.914 1.667-5.506 1.699-6.358.335-8.997-3.016-5.832-8.17-8.28-13.712-6.513m-227.5 1.575c-.55.172-3.7 1.093-7 2.047-10.644 3.077-16.123 10.661-13.039 18.044 1.774 4.244 3.305 5.646 9.234 8.452 5.863 2.775 10.657 2.624 12.638-.399 1.814-2.769 1.308-3.615-2.162-3.615-3.852 0-12.96-3.155-15.24-5.279-4.958-4.619.049-10.382 11.045-12.716 5.95-1.263 20.918-.953 30.284.626 3.124.527 3.496.827 2.201 1.774-.914.668-3.164 7.537-5.443 16.617-6.636 26.44-11.479 38.23-19.22 46.785-5.843 6.458-8.949 7.701-18.798 7.519-4.675-.087-9.606-.308-10.957-.492-1.932-.263-2.672.266-3.464 2.475-1.258 3.511.216 4.654 6.035 4.676 11.288.042 24.376-4.994 31.523-12.13 5.514-5.504 11.18-14.758 14.411-23.537 1.38-3.75 2.915-7.718 3.411-8.818 1.424-3.16 3.143-9.148 4.544-15.835.71-3.391 2.045-8.752 2.965-11.915 1.586-5.446 1.842-5.75 4.86-5.75 1.752 0 4.584.401 6.295.892 3.722 1.067 4.911.464 6.303-3.198 1.295-3.406 1.901-3.18-13.768-5.146-10.663-1.337-33.664-2.014-36.658-1.077M481.702 431.54c-8.153 1.621-21.795 6.695-26.867 9.993-6.185 4.022-15.682 13.003-20.775 19.647-10.02 13.074-14.618 31.849-12.139 49.571.667 4.767 1.849 9.81 2.627 11.208.778 1.397 2.318 6.366 3.423 11.041 3.823 16.169 15.895 35.506 34.894 55.89 1.851 1.985 4.776 5.635 6.5 8.11 2.869 4.118 3.126 5.137 3.034 12-.087 6.423-.628 8.627-3.77 15.349-2.26 4.836-4.387 8.037-5.541 8.338-1.031.27-2.114 1.688-2.408 3.152-1.201 5.981-12.608 15.99-23.18 20.338-15.048 6.188-27.976 10.237-50.5 15.816-4.675 1.158-12.56 3.408-17.523 5.001-4.963 1.593-11.263 3.395-14 4.006-6.899 1.539-22.216 7.687-26.696 10.715-4.388 2.966-8.93 10.596-10.883 18.285-1.737 6.832-1.773 41.727-.057 53.5 2.541 17.433 7.956 43.824 13.337 65 3.419 13.457 4.257 15.5 6.357 15.5.806 0 1.458-.788 1.45-1.75-.019-2.316-2.716-13.687-4.476-18.873-1.346-3.966-6.404-27.331-9.066-41.877-4.419-24.149-5.709-55.421-2.859-69.292 1.655-8.054 3.715-12.336 7.604-15.804 3.028-2.702 17.706-9.004 25.312-10.869 3.3-.81 10.05-2.629 15-4.044 18.482-5.282 23.274-6.616 34.211-9.521 20.915-5.555 40.552-13.644 49.027-20.195 10.689-8.261 18.774-21.309 22.752-36.715 1.402-5.427 1.469-7.158.429-11-1.748-6.462-4.627-11.883-8.274-15.583-1.73-1.754-4.945-5.337-7.145-7.962-2.2-2.625-4.9-5.749-6-6.944-1.1-1.194-2.675-3.121-3.5-4.282-6.264-8.818-10-14.347-10-14.799 0-.293-1.099-2.211-2.441-4.261-3.04-4.644-5.499-11.28-10.023-27.059-2.906-10.132-3.533-13.965-3.521-21.5.036-22.505 7.143-36.92 25.532-51.793 11.002-8.897 17.843-11.609 36.514-14.475 9.559-1.468 12.317-1.537 19.202-.483 20.7 3.169 32.448 10.643 44.138 28.081 4.012 5.986 9.415 20.089 14.749 38.5 1.1 3.796 1.919 5 3.4 5 1.58 0 1.932-.663 1.853-3.5-.155-5.596-3.406-20.184-5.348-24-4.145-8.142-4.947-10.708-3.729-11.935.902-.909.768-1.029-.576-.517-1.217.463-1.75.177-1.75-.941 0-.884-.409-1.607-.909-1.607s-3.286-3.038-6.192-6.75-7.426-8.826-10.044-11.364c-6.165-5.975-18.712-12.463-27.801-14.375-8.688-1.827-24.085-1.814-33.352.029m316.708 34.885c-1.326.929-2.535 1.108-3.472.515-2.181-1.38-8.701-1.116-11.738.475-4.127 2.162-8.744 7.465-12.135 13.937-5.868 11.201-3.34 21.648 5.24 21.648 4.128 0 10.94-4.64 13.185-8.98 1.946-3.764 2.91-3.882 2.21-.27-.629 3.245 3.362 9.25 6.148 9.25 1.657 0 9.152-6.791 9.152-8.292 0-1.28-2.729-.739-4 .792-.685.825-2.09 1.5-3.122 1.5-2.735 0-2.453-4.633 1.127-18.52 1.653-6.41 2.751-12.065 2.441-12.567-.813-1.316-2.699-1.124-5.036.512m99.456-.038c-1.607.838-3.167 1.037-4 .509-2.128-1.348-8.673-1.047-11.741.539-6.279 3.247-13 13.273-14.871 22.185-1.122 5.342-.568 7.794 2.442 10.803 4.678 4.678 11.326 2.931 17.676-4.643l3.589-4.28.019 3.285c.026 4.248 2.649 8.215 5.432 8.215 2.683 0 10.114-7.339 9.097-8.985-.504-.816-1.423-.505-3.064 1.036-2.838 2.667-5.445 1.958-5.445-1.48 0-1.37 1.102-6.896 2.448-12.281 3.969-15.867 3.774-17.697-1.582-14.903m79.406-.176c-2.594 1.251-2.668 1.457-4.809 13.289-2.977 16.447-3.014 18.285-.42 21.045 3.098 3.298 8.187 3.28 12.546-.045 1.803-1.375 3.472-2.5 3.71-2.5.571 0-2.828 12.199-4.941 17.732-.916 2.399-2.467 4.791-3.446 5.315-2.452 1.312-8.549 1.196-10.793-.205-2.433-1.519-5.119-.422-5.119 2.091 0 2.504 2.832 4.067 7.369 4.067 4.663 0 8.522-1.552 11.972-4.814 6.432-6.08 7.696-9.372 15.165-39.485 4.312-17.385 4.028-20.383-1.508-15.901-1.707 1.383-2.782 4.448-4.629 13.205-2.522 11.957-4.03 14.708-9.669 17.642-1.54.801-3.677 1.178-4.75.837-2.584-.82-2.551-4.948.124-15.671 1.141-4.572 2.5-10.029 3.02-12.127 1.36-5.488.46-6.542-3.822-4.475m59.869-.32c-.747.474-4.16.636-7.584.361-5.544-.445-6.672-.204-10.295 2.193-2.238 1.481-5.984 5.423-8.324 8.76-3.871 5.517-4.299 6.736-4.731 13.473-.431 6.714-.26 7.637 1.833 9.865 3.488 3.713 8.501 3.338 14.142-1.057 2.48-1.932 5.114-4.744 5.852-6.25l1.343-2.736.621 4.874c.592 4.644 2.729 7.626 5.465 7.626 1.752 0 8.537-6.019 8.537-7.573 0-1.857-1.748-1.822-3.643.073-2.551 2.551-4.357 1.825-4.356-1.75.002-3.99 2.309-15.553 4.413-22.116 1.974-6.157.755-8.295-3.273-5.743m18.601 1.312c-2.142 1.986-2.842 4.45-5.165 18.192-1.582 9.354-2.319 16.263-1.792 16.79 1.51 1.51 4.974-2.382 6.642-7.465 2.634-8.021 6.418-14.566 11.428-19.764 2.628-2.726 5.258-4.956 5.845-4.956 1.795 0 2.004 3.176.692 10.5-2.64 14.738-2.767 17.278-1.003 19.971 2.363 3.607 5.549 3.201 9.908-1.263 2.037-2.086 3.703-4.111 3.703-4.5 0-1.28-2.729-.739-4 .792-.685.825-2.09 1.5-3.122 1.5-2.489 0-2.46-3.425.122-14.5 2.678-11.487 2.6-14.061-.493-16.087-3.776-2.474-7.271-1.024-13.777 5.716l-5.771 5.978.703-4.304c1.459-8.927.441-10.641-3.92-6.6m-269.574 2.988c-6.441 4.077-11.571 14.887-10.973 23.119.287 3.937.504 4.209 3.608 4.507 5.292.509 10.5-6.025 15.355-19.264 1.59-4.338 1.639-5.214.392-7.117-2.015-3.075-4.831-3.494-8.382-1.245m99.042.154c-4.604 3.397-7.111 6.943-9.288 13.137-3.565 10.141-2.073 15.369 4.005 14.034 4.751-1.044 10.149-9.074 13.67-20.338 1.289-4.125 1.24-4.432-1.078-6.75-2.993-2.992-3.36-2.997-7.309-.083m140.79-1.636c-6.863 2.524-15.04 18.722-13.114 25.981.556 2.094 1.451 2.893 3.515 3.135 5.15.603 14.29-11.856 16.124-21.981.533-2.939.252-4.067-1.431-5.75-2.18-2.18-2.612-2.297-5.094-1.385m-196.155 3.546c-4.967 4.201-10.615 13.419-12.898 21.049-1.673 5.593 5.005 8.61 11.095 5.012 4.8-2.835 11.055-19.809 9.534-25.871-.79-3.146-4.138-3.229-7.731-.19M562 501c0 1.1.45 2 1 2s1-.9 1-2-.45-2-1-2-1 .9-1 2m.336 28c0 4.125.177 5.813.392 3.75.216-2.062.216-5.437 0-7.5-.215-2.062-.392-.375-.392 3.75m372.606 1.472c-1.407.765-3.092 2.563-3.745 3.995-1.656 3.636-6.197 20.016-6.197 22.357 0 1.063-1.013 2.65-2.25 3.527-2.111 1.497-2.143 1.68-.509 2.976 1.639 1.3 1.533 2.188-1.815 15.252-1.956 7.63-4.05 14.469-4.655 15.197-.604.728-2.038 1.252-3.185 1.163-3.648-.281-4.586.025-4.586 1.494 0 2.265 3.613 2.818 6.994 1.07 3.295-1.704 6.688-6.39 7.605-10.503.306-1.375 1.715-7.112 3.13-12.75 2.299-9.161 2.809-10.25 4.799-10.25 1.225 0 2.787-.675 3.472-1.5 1.053-1.269.758-1.598-1.903-2.131-2.293-.458-3.016-1.07-2.66-2.249.269-.891 1.643-6.106 3.054-11.589 3.226-12.534 4.342-14.356 8.427-13.756 2.613.383 3.082.131 3.082-1.662 0-1.726-.596-2.106-3.25-2.073-1.788.022-4.401.666-5.808 1.432m-131.461 2.278c-.307 1.513-1.649 7.475-2.982 13.25-1.334 5.775-2.561 11.4-2.727 12.5-.242 1.601-.937 1.936-3.484 1.68-6.093-.612-14.288 9.531-14.288 17.686 0 2.389 3.273 6.134 5.36 6.134.749 0 2.947-1.076 4.886-2.392l3.525-2.392 1.905 2.552c1.876 2.512 1.948 2.524 4.615.777 3.292-2.157 3.523-4.233.459-4.124-1.446.051-2.182-.457-2.06-1.421.351-2.774 5.419-25.412 7.876-35.181 2.993-11.905 2.994-11.819-.047-11.819-1.905 0-2.61.639-3.038 2.75m-72.33 1.113c-1.458 1.575-5.074 7.538-8.035 13.25-2.961 5.713-6.223 11.46-7.25 12.772-1.026 1.312-1.866 2.894-1.866 3.517 0 2.079-9.109 11.578-13.661 14.245-2.698 1.581-6.759 2.877-10.166 3.243-4.105.441-5.673 1.025-5.673 2.11 0 2.388 5.523 2.337 12.078-.112 4.117-1.538 7.751-3.965 11.922-7.962l6-5.749 2.924 2.338c1.608 1.286 3.858 4.283 5 6.661 1.355 2.822 2.824 4.431 4.231 4.631 1.853.264 2.308-.407 3.25-4.799.602-2.809 1.095-5.699 1.095-6.422 0-.724.879-2.433 1.953-3.799 1.13-1.437 1.583-2.862 1.074-3.384-.506-.521.333-7.017 1.982-15.341 2.928-14.778 2.811-18.062-.643-18.062-.86 0-2.757 1.289-4.215 2.863m223.669-1.113c-5.427 6.373-8.093 14.949-5.354 17.222 2.163 1.795 2.974.665 4.441-6.191 1.369-6.403 4.056-10.54 6.046-9.31 1.743 1.077.773 9.014-3.525 28.837-3.819 17.609-4.036 19.692-2.05 19.692 2.072 0 2.945-1.665 6.031-11.5 3.946-12.576 14.368-33.5 16.686-33.5 1.547 0 1.029 4.28-2.749 22.691-4.38 21.349-4.421 21.809-1.958 21.809 1.479 0 2.381-1.621 4.17-7.5 2.824-9.278 8.978-24.622 10.427-26 .29-.275 1.791-2.196 3.336-4.269s3.173-3.543 3.619-3.268c.445.275.395 2.646-.111 5.268a8448.89 8448.89 0 01-3.471 17.769 3455.547 3455.547 0 00-3.08 15.836c-.47 2.513-.267 2.798 1.785 2.5 2.675-.388 3.172-1.943 8.006-25.025 3.727-17.8 3.647-20.193-.694-20.615-1.781-.173-3.715.316-4.5 1.138-3.245 3.404-5.123 6.107-7.965 11.467-1.662 3.135-2.798 4.799-2.523 3.699 1.748-7.005 2.762-14.769 2.215-16.952-.501-1.992-1.268-2.548-3.517-2.548-3.704 0-7.892 4.68-12.661 14.151-3.579 7.107-5.608 8.684-3.54 2.751 1.902-5.454 1.414-14.254-.957-17.267-2.389-3.038-5.944-3.426-8.107-.885m-227.102 12c-8.2 14.259-10.041 18.43-8.555 19.372 1.685 1.068 5.943 1.098 7.587.053.688-.436 2.115-5.495 3.17-11.241 1.056-5.746 2.229-11.681 2.608-13.19.379-1.509.454-2.744.168-2.744-.287 0-2.526 3.487-4.978 7.75m318.276 1.757c-1.107 1.334-1.063 1.852.264 3.18 2.145 2.144 4.972.953 4.562-1.922-.391-2.739-3.027-3.426-4.826-1.258m-300.08 14.313c-.872.374-3.096 2.414-4.943 4.533-2.776 3.184-3.43 4.838-3.77 9.54-.491 6.798.957 8.562 7.031 8.562 3.133 0 4.501-.605 6.425-2.843 2.686-3.122 2.396-4.847-.401-2.391-5.4 4.742-8.768 2.464-8.011-5.417.387-4.034 1.098-5.703 3.199-7.509 3.158-2.717 4.817-2.185 3.951 1.266-.336 1.342-.203 2.439.297 2.439 1.594 0 3.308-2.331 3.308-4.5 0-3.785-3.093-5.391-7.086-3.68m18.284 1.229c-3.875 2.391-6.194 5.273-7.749 9.635-1.909 5.353-1.764 8.001.566 10.331 2.485 2.485 6.512 1.845 9.613-1.529l2.129-2.315 1.1 2.415c1.335 2.929 5.1 3.224 7.488.585 2.313-2.556 2.066-3.312-.845-2.582-3.001.754-3.111-.264-.98-9.089 2.209-9.148 2.222-9.115-3.572-9.115-2.965 0-6.166.687-7.75 1.664m47.502.701c-1.992 1.513-4.315 4.168-5.161 5.901-1.604 3.285-2.042 10.049-.774 11.949 2.694 4.034 11.015 3.766 14.342-.463 2.534-3.222.621-4.296-2.221-1.245-2.193 2.354-4.876 2.718-6.686.908-2.076-2.076-1.314-4.51 1.82-5.808 6.049-2.506 9.865-9.707 6.78-12.792-1.873-1.873-4.17-1.433-8.1 1.55m24.377-.161c-2.961 2.491-3.077 2.51-3.077.5 0-3.071-4.778-2.93-5.454.161-2.442 11.156-3.156 19.75-1.64 19.75.498 0 2.326-3.038 4.063-6.75 3.397-7.263 6.521-11.25 8.814-11.25.979 0 1.264.713.897 2.25-1.66 6.964-2.874 14.889-2.359 15.404 1.367 1.367 3.385-.729 4.598-4.777 1.633-5.451 6.676-12.877 8.746-12.877 1.148 0 1.398.603.934 2.25-.349 1.237-.912 5.014-1.251 8.393-.568 5.65-.439 6.238 1.612 7.335 1.898 1.016 2.581.862 4.604-1.038 1.306-1.227 2.112-2.655 1.792-3.172-.351-.568-1.013-.511-1.669.145-3.061 3.061-3.529-.716-1.1-8.893 2.738-9.222-1.74-13.47-7.4-7.02-3.014 3.435-4.187 3.771-4.187 1.2 0-2.071-1.837-4.2-3.623-4.2-.673 0-2.608 1.165-4.3 2.589m29.764-1.528c-1.865 1.053-4.193 12.541-3.663 18.078.318 3.317.385 3.36 5.149 3.293l4.827-.067-.639 3.406c-1.461 7.787-5.264 11.504-9.468 9.254-2.367-1.267-5.047-.753-5.047.968 0 1.969 5.056 3.144 8.556 1.988 7.056-2.328 8.441-4.954 13.33-25.268 2.664-11.071 2.694-12.677.223-12.031-1.774.464-3.741 5.276-5.555 13.593-.587 2.695-3.786 6.741-5.304 6.71-.413-.009-1.336-.387-2.053-.842-1.046-.664-.853-2.522.982-9.452 2.362-8.915 2-11.514-1.338-9.63m39.761.463c-5.705 2.975-8.602 7.848-8.602 14.469 0 2.981.601 4.335 2.635 5.934 1.449 1.14 3.609 2.073 4.8 2.073 3.392 0 10.394-5.07 11.539-8.356 1.837-5.269 1.271-10.49-1.429-13.189-2.832-2.833-4.886-3.047-8.943-.931m110.633-.69c-.696.442-1.886 4.059-2.645 8.039-1.502 7.887-3.612 11.127-7.245 11.127-2.743 0-2.792-.404-.949-7.856 2.851-11.533 2.83-11.144.598-11.144-2.45 0-3.599 2.657-5.21 12.053-.936 5.461-.907 7.093.149 8.366 1.509 1.818 7.132 2.116 8.783.465.821-.821 1.719-.693 3.4.484 2.013 1.41 2.546 1.428 4.497.15 1.946-1.275 2.594-1.261 5.348.112 3.791 1.891 7.313 1.187 10.625-2.125 3.442-3.442 3.033-6.169-1.554-10.371-2.957-2.707-3.733-4.013-3.045-5.12.769-1.238 1.457-1.285 4.115-.282 4.69 1.771 6.519.032 3.327-3.161-2.592-2.591-5.951-1.88-9.336 1.976-3.499 3.985-3.311 5.006 1.821 9.89 1.697 1.615 3.086 3.723 3.086 4.683 0 2.351-3.395 3.287-6.212 1.711-2.881-1.611-6.567-1.998-7.326-.769-1.11 1.796-2.462.921-2.462-1.594 0-1.392.925-5.277 2.056-8.633 2.523-7.49 1.873-10.346-1.821-8.001m27.446.628c-1.644 1.644-4.308 17.461-3.358 19.937.857 2.233 5.006 2 7.183-.405 2.209-2.442 1.428-3.564-1.42-2.04-1.895 1.014-2.086.847-2.086-1.83 0-1.62.878-5.765 1.95-9.211 1.073-3.446 1.721-6.636 1.441-7.089-.758-1.227-2.071-1.002-3.71.638m12.303 2.288c-7.1 6.759-7.807 16.846-1.352 19.3 3.227 1.227 8.299-.212 10.908-3.094 2.334-2.579 1.22-3.602-1.698-1.558-1.258.881-3.488 1.602-4.956 1.602-3.116 0-4.337-3.078-3.337-8.41.602-3.208 4.632-8.59 6.432-8.59 1.465 0 2.477 2.347 1.196 2.774-1.601.534-1.498 3.226.123 3.226 1.947 0 3.7-2.131 3.7-4.5 0-5.563-5.563-5.942-11.016-.75m-290.397 1.36c-3.494 2.749-5.587 6.997-5.587 11.34 0 4.648 2.77 4.8 6.509.356 2.574-3.058 3.398-4.653 4.906-9.495 1.088-3.496-2.472-4.841-5.828-2.201m24.426.723c-3.061 3.061-5.657 10.046-4.68 12.592 1.063 2.769 4.293 1.723 7.075-2.292 3.578-5.163 5.24-11.107 3.427-12.256-2.078-1.318-2.786-1.08-5.822 1.956m23.712-1.081c-1.832 2.024-3.998 7.248-3.005 7.248 1.481 0 6.28-5.492 6.28-7.187 0-2.29-1.237-2.313-3.275-.061m92.539.181c-2.823 2.355-4.264 6.105-4.264 11.097 0 7.535 5.906 6.646 8.933-1.345 1.634-4.313 1.353-10.361-.515-11.078-1.944-.746-1.503-.886-4.154 1.326m-187.259 2.817c.003.413 1.126 2.1 2.496 3.75 2.423 2.919 2.531 2.947 3.995 1.059.827-1.068 1.504-2.755 1.504-3.75 0-1.444-.808-1.809-4-1.809-2.2 0-3.998.337-3.995.75M563 639.549c-5.285 2.864-15.726 7.692-20.813 9.624-7.095 2.695-16.043 10.302-19.421 16.512-3.849 7.078-4.723 15.1-4.746 43.574l-.02 24.759-4.126 9.741c-2.269 5.358-4.691 10.416-5.382 11.241-.69.825-2.676 4.259-4.413 7.63-1.736 3.372-4.04 6.929-5.118 7.905-1.079.976-1.961 2.226-1.961 2.778 0 .551-1.714 3.294-3.809 6.095-2.094 2.8-6.413 8.623-9.596 12.938-3.183 4.316-6.532 8.643-7.441 9.616-.91.974-3.904 4.64-6.654 8.148-7.83 9.987-44.223 49.983-50.774 55.8-.976.867-7.388 7.089-14.25 13.827C392.52 891.479 390.028 895 393.675 895c1.437 0 22.253-19.736 35.861-34a2133.87 2133.87 0 0111.128-11.528c11.193-11.507 36.27-40.578 44.336-51.397 2.475-3.32 5.791-7.732 7.369-9.805 2.821-3.705 7.163-9.977 9.131-13.187.55-.898 2.834-4.546 5.076-8.107 2.242-3.562 5.597-9.496 7.456-13.186 1.859-3.691 3.541-6.551 3.737-6.355.196.196.568 2.069.828 4.162.561 4.524.804 4.847 3.006 4.002 1.552-.596 1.645-3.189 1.152-31.874-.995-57.892.531-61.93 27.745-73.422 3.3-1.393 7.8-3.333 10-4.31 2.2-.977 4.819-2.048 5.82-2.38 1.177-.391 1.707-1.373 1.5-2.78-.397-2.703-1.608-3.025-4.82-1.284M567.5 663c.34.55.816 1 1.059 1s.441-.45.441-1-.477-1-1.059-1-.781.45-.441 1m-8.722 3.926c-2.537 1.609-5.888 3.071-7.445 3.25-2.794.319-2.827.4-2.368 5.824.64 7.586.616 9.938-.32 30.863-.677 15.158-.587 18.285.517 17.92 1.566-.518 2.552-11.136 3.265-35.177l.472-15.893 6.729-3.642c3.701-2.003 6.911-4.189 7.134-4.857.715-2.146-3.237-1.298-7.984 1.712m218.772 57.019c-1.029 1.137-1.584 2.354-1.233 2.705.708.708 27.811 10.109 39.946 13.856 4.27 1.318 8.995 3.077 10.5 3.908 1.505.831 5.662 2.403 9.237 3.492s13.7 4.513 22.5 7.608c8.8 3.096 19.15 6.696 23 8.001 3.85 1.304 15.55 5.343 26 8.976 24.384 8.475 27.606 9.489 26.987 8.489-.28-.454-3.541-1.813-7.248-3.023-3.706-1.209-8.089-2.813-9.739-3.565-2.77-1.263-13.086-5.189-32.926-12.532-4.36-1.613-9.31-3.571-11-4.35-1.691-.779-5.999-2.405-9.574-3.614s-10.775-3.971-16-6.138c-5.225-2.168-14.9-5.903-21.5-8.302-6.6-2.398-16.275-6.007-21.5-8.02-27.851-10.726-25.182-9.998-27.45-7.491m-18.861 4.996c-1.412 2.396-1.522 3.173-.5 3.519 11.302 3.826 23.607 7.595 26.567 8.138 2.059.377 6.102 1.72 8.984 2.984 2.882 1.265 9.632 3.493 15 4.952 5.368 1.46 10.21 2.991 10.76 3.403.55.413 3.925 1.524 7.5 2.469 6.15 1.626 18.551 5.456 36.5 11.272 4.4 1.426 12.275 3.847 17.5 5.381 5.225 1.533 10.85 3.272 12.5 3.865 1.65.592 10.425 3.354 19.5 6.138 9.075 2.783 19.875 6.189 24 7.568 9.877 3.301 18.126 5.577 18.578 5.126.349-.35-10.524-4.495-19.328-7.369-10.946-3.573-25.641-8.649-50.25-17.36-7.975-2.823-18.053-6.271-22.396-7.663-4.343-1.391-8.618-2.939-9.5-3.439-.882-.501-5.654-2.214-10.604-3.808-4.95-1.594-13.725-4.58-19.5-6.636-16.426-5.849-59.28-20.563-61.5-21.116-1.459-.363-2.49.334-3.811 2.576m-15.386 5.809c-.35.962-1.986 3.662-3.637 5.998-1.652 2.337-2.814 4.414-2.584 4.617.23.203 5.143 1.51 10.918 2.905 9.496 2.294 24.944 6.249 58 14.849a27330.475 27330.475 0 0057 14.773 4915.197 4915.197 0 0131 8.124c8.525 2.271 20.59 5.437 26.812 7.036 6.222 1.599 11.683 3.136 12.135 3.415.453.28 7.288 2.054 15.188 3.941 29.516 7.053 42.578 10.441 50.041 12.98 4.222 1.437 8.947 2.597 10.5 2.579 2.861-.034-11.167-4.99-25.676-9.073-4.125-1.16-7.95-2.437-8.5-2.837-.55-.399-3.7-1.306-7-2.014-3.3-.708-9.6-2.526-14-4.04-4.4-1.514-15.425-5.097-24.5-7.962a9569.496 9569.496 0 01-27-8.567c-5.775-1.847-13.425-4.129-17-5.072-3.575-.943-6.95-2.021-7.5-2.394-.55-.374-3.7-1.447-7-2.384-6.388-1.815-30.375-9.309-42-13.122-3.85-1.263-11.725-3.721-17.5-5.463-5.775-1.743-19.05-5.878-29.5-9.191-10.45-3.313-22.43-7.109-26.621-8.436-9.084-2.875-10.74-2.97-11.576-.662M565 746.644c-6.689 2.931-7.533 3.349-13.5 6.692l-6 3.36-.753 8.402c-2.016 22.504-9.251 46.676-21.372 71.402-9.317 19.006-13.128 25.936-19.094 34.718-2.629 3.872-6.131 9.157-7.781 11.746-6.492 10.185-16.862 22.071-44.748 51.286C441.39 945.106 436.046 950 434.554 950c-4.183 0-14.284-4.118-26.608-10.847-14.864-8.116-17.289-9.491-17.946-10.17-.275-.285-4.464-3.131-9.309-6.324-6.934-4.571-9.102-5.563-10.19-4.66-1.417 1.176-.992 4.001.602 4.001.49 0 3.996 2.216 7.793 4.926 14.132 10.084 38.559 22.994 49.548 26.187 4.578 1.33 7.556 2.726 7.556 3.541 0 .74.477 1.346 1.059 1.346s.781-.45.441-1-.156-1 .408-1 2.6-1.575 4.525-3.5c1.925-1.925 3.965-3.5 4.534-3.5a1.04 1.04 0 001.033-1.042c0-.573.92-2.029 2.045-3.236 1.752-1.881 2.191-1.982 3.065-.709.768 1.118.852.892.34-.914-.52-1.834-.345-2.273.738-1.857.901.346 1.896-.535 2.727-2.413.815-1.84 1.834-2.756 2.697-2.424.773.296 1.388-.083 1.388-.855 0-.763 1.743-3.201 3.874-5.419 2.131-2.217 4.166-4.794 4.524-5.725.357-.931.932-1.409 1.279-1.063.346.347 1.653-.757 2.904-2.453 1.252-1.696 4.108-5.039 6.347-7.428 2.24-2.39 4.072-4.869 4.072-5.51 0-.643.696-.899 1.552-.57.879.337 1.29.172.949-.381-.332-.537-.146-1.544.413-2.238.559-.695 2.382-2.897 4.051-4.895 1.669-1.998 3.035-3.928 3.035-4.291 0-.362.846-1.877 1.88-3.367 9.929-14.311 30.12-47.794 30.12-49.951 0-.281 1.349-3.167 2.998-6.412 1.649-3.245 3.94-8.701 5.091-12.124 1.151-3.423 2.552-6.779 3.113-7.459.56-.679 1.858-4.279 2.884-8 1.026-3.72 2.749-9.808 3.83-13.528 1.867-6.425 4.47-20.96 5.506-30.736.262-2.475.499-4.608.527-4.74.145-.683 18.234-9.26 19.531-9.26 1.847 0 1.936-1.073.27-3.254-1.138-1.489-1.565-1.498-4.75-.102m142 5.181c-9.309 6.68-28.034 19.715-34.01 23.675l-3.018 2 .646 8.423c1.054 13.711.745 13.245 10.449 15.781l23.585 6.162c8.334 2.178 15.984 4.393 17 4.924 1.016.531 6.061 1.945 11.21 3.143 5.149 1.199 11.674 3.017 14.5 4.043 2.826 1.025 6.713 2.154 8.638 2.509 3.756.694 29.826 7.661 47 12.561a1263.302 1263.302 0 0020 5.502c24.479 6.46 36.714 9.737 51.5 13.797l32.5 8.922c9.075 2.491 18.3 4.837 20.5 5.213 2.2.376 7.375 1.746 11.5 3.044s13.125 3.794 20 5.547a6339.048 6339.048 0 0129 7.493l16.5 4.306 5.235-3.685c2.88-2.027 8.28-5.852 12-8.5 11.384-8.102 24.104-16.832 43.213-29.659 7.397-4.964 13.191-9.026 12.877-9.026-.605 0-4.033-.886-34.325-8.866-26.942-7.097-47.409-12.538-59-15.683-16.484-4.473-35.467-9.355-44.5-11.444-4.675-1.081-11.875-2.889-16-4.019-4.125-1.129-12-3.204-17.5-4.611-5.5-1.407-12.7-3.441-16-4.52-3.3-1.079-9.825-2.784-14.5-3.789-4.675-1.004-12.55-2.961-17.5-4.348-4.95-1.388-12.6-3.413-17-4.501-24.707-6.108-33.849-8.464-41.5-10.698-4.675-1.365-13.225-3.666-19-5.114-25.374-6.363-46.137-11.759-53.588-13.927-8.542-2.485-10.053-2.089-20.412 5.345m241.813 34.858c.721.289 1.584.253 1.916-.079.332-.332-.258-.568-1.312-.525-1.165.048-1.402.285-.604.604m-384.734 17.9c.048 1.165.285 1.402.604.605.289-.722.253-1.585-.079-1.917-.332-.332-.568.258-.525 1.312m108.927-.94c.013 2.073 2.157 8.34 3.039 8.885.534.33 1.723-.154 2.644-1.074 1.264-1.264 2.866-1.559 6.551-1.205 7.633.733 8.099 2.129 2.374 7.1-4.563 3.961-4.795 4.388-3.51 6.447.758 1.212 1.831 2.189 2.387 2.171 1.018-.033 7.244-3.571 13.576-7.713 1.888-1.236 4.416-2.248 5.618-2.25 2.924-.005 7.315 1.72 7.315 2.874 0 .759-6.346 5.663-17.844 13.79-2.172 1.535-.57 3.106 1.642 1.611.936-.633 6.786-4.35 12.999-8.26l11.298-7.108 4.623 1.305c2.542.718 4.76 1.751 4.928 2.295.231.747-17.189 13.013-27.882 19.634-1.328.822 11.16 12.773 13.396 12.82.913.019 5.638 1.318 10.5 2.887 10.82 3.49 29.914 9.129 41.34 12.208 4.675 1.26 9.175 2.62 10 3.021.825.401 4.425 1.464 8 2.362 3.575.897 12.125 3.387 19 5.531 20.421 6.37 32.163 9.794 38 11.079 3.025.666 6.382 1.668 7.46 2.227 1.078.558 6.928 2.295 13 3.86 6.072 1.564 16.215 4.456 22.54 6.425 24.43 7.609 53.808 16.209 63.159 18.49 4.314 1.052 4.979.942 9-1.492 2.387-1.446 7.041-4.636 10.341-7.09 3.3-2.454 7.575-5.536 9.5-6.849 1.925-1.313 4.603-3.36 5.951-4.547 1.348-1.188 4.753-3.477 7.566-5.087 2.814-1.61 5.874-3.764 6.8-4.788 1.62-1.79 1.39-1.928-6.066-3.61-4.263-.962-8.385-2-9.16-2.307-.984-.389-1.221-.066-.785 1.071.444 1.156-.307 2.099-2.59 3.253-1.769.894-4.116 2.397-5.216 3.341-1.741 1.494-11.393 7.649-27.222 17.359l-4.579 2.809-7.018-1.809c-3.859-.995-7.187-2.32-7.395-2.945-.336-1.012 3.363-3.772 13.109-9.778 1.708-1.053 5.687-3.64 8.844-5.75 3.156-2.11 5.963-3.836 6.238-3.836.274 0 2.995-1.681 6.046-3.736 5.353-3.605 5.457-3.759 2.979-4.422-1.896-.507-3.187-.119-4.942 1.486-1.306 1.195-4.554 3.337-7.218 4.762-2.663 1.424-10.842 6.037-18.176 10.25-8.025 4.61-14.396 7.628-16 7.58-3.823-.115-12.451-3.204-12.911-4.622-.214-.661 2.37-2.686 5.742-4.5 17.75-9.548 31.589-17.595 32.829-19.088.822-.991-.943-1.783-8.013-3.594-5.293-1.356-9.326-1.937-9.69-1.395-.873 1.3-27.057 18.428-36.162 23.655-2.252 1.292-3.269 1.257-9-.311-4.257-1.164-6.571-2.33-6.784-3.416-.178-.907.093-1.649.601-1.649.907 0 12.346-7.129 17.16-10.694 1.341-.993 4.742-3.156 7.558-4.806 5.657-3.315 10.504-6.958 10.504-7.894 0-1.751-4.786-.135-10.284 3.473-15.747 10.334-28.132 18.153-30.36 19.168-1.819.829-3.756.79-7.646-.154-8.344-2.024-8.71-2.168-8.706-3.41.004-1.094 16.206-11.723 29.727-19.501 7.273-4.184 8.049-4.945 5.885-5.776-1.06-.407-2.56.111-3.917 1.351-1.209 1.105-3.577 2.704-5.26 3.554-1.684.85-9.109 5.402-16.5 10.117-7.392 4.714-14.339 8.565-15.439 8.558-1.1-.007-4.7-.829-8-1.826l-6-1.812 2.531-2.282c2.372-2.137 16.85-11.317 28.719-18.209 5.81-3.373 6.327-4.29 3-5.322-9.976-3.094-12.565-3.356-14.586-1.473-2.787 2.597-12.229 8.804-19.682 12.938-3.47 1.925-7.135 4.233-8.145 5.129-1.011.897-3.381 2.413-5.267 3.369-3.012 1.527-4.11 1.589-9 .506-3.064-.678-6.41-1.676-7.437-2.216-1.7-.896-1.726-1.124-.288-2.562.868-.868 4.093-2.961 7.166-4.652 11.31-6.222 28.56-17.903 27.703-18.76-.793-.793-7.535 2.74-14.214 7.448-5.661 3.991-16.724 11.007-21.179 13.432-4.578 2.492-4.994 2.543-10.781 1.315-7.76-1.647-8.747-2.864-4.698-5.797 3.245-2.35 21.225-14.001 27.908-18.084 2.063-1.26 3.75-2.465 3.75-2.677 0-.213-3.803-1.572-8.451-3.021l-8.452-2.635-2.798 1.961c-1.54 1.078-7.074 4.507-12.299 7.618-5.225 3.112-10.175 6.087-11 6.612-.825.525-4.064 2.561-7.198 4.525l-5.698 3.571-6.302-1.619c-6.874-1.765-8.085-2.455-7.01-3.993.837-1.199 16.179-10.958 28.958-18.421 2.888-1.686 5.25-3.512 5.25-4.058 0-1.555-.541-1.312-9.445 4.259a1213.936 1213.936 0 01-15.047 9.25c-3.661 2.2-8.184 4.99-10.051 6.199-1.868 1.21-3.972 2.297-4.676 2.416-2.308.391-13.778-3.587-13.78-4.778-.001-.872-.737-.886-2.942-.053-2.634.994-3.467.751-7.998-2.337-2.781-1.896-5.055-3.672-5.053-3.947.006-.604 4.712-3.504 11.492-7.081 2.75-1.451 9.23-4.951 14.4-7.779 5.17-2.827 10.12-5.166 11-5.197 1.739-.062-6.571-2.484-40.4-11.774-12.1-3.323-25.15-6.907-29-7.966-3.85-1.058-7.788-2.26-8.75-2.671-.962-.41-1.747-.36-1.744.111m-110.339 18.024c-.367.366-.667 1.131-.667 1.7 0 .626.466.567 1.183-.15.651-.651.951-1.416.667-1.7-.284-.285-.817-.217-1.183.15m465.146.016c.721.289 1.584.253 1.916-.079.332-.332-.258-.568-1.312-.525-1.165.048-1.402.285-.604.604M557 838.059c0 .582.45.781 1 .441s1-.816 1-1.059-.45-.441-1-.441-1 .477-1 1.059m195.507-.07c-.35.566.051.734.941.393 1.732-.665 2.049-1.382.611-1.382-.518 0-1.216.445-1.552.989M1078 842.885c-7.639 4.521-46.655 31.236-60.045 41.115-4.1 3.025-7.92 5.725-8.489 6-1.266.613-12.867 8.856-27.226 19.347-5.907 4.315-12.99 9.349-15.74 11.186-2.75 1.837-5.994 4.156-7.21 5.153l-2.21 1.814 1.459 33.5c.802 18.425 2.104 54.373 2.894 79.884.825 26.674 1.849 46.798 2.409 47.358.631.631 3.554-.917 8.316-4.404 4.038-2.958 8.467-6.133 9.842-7.056 1.375-.924 7-4.851 12.5-8.728s12.404-8.646 15.342-10.598c2.938-1.952 5.863-3.993 6.5-4.536 1.438-1.227 20.007-14.19 27.101-18.92a868.514 868.514 0 0010.305-7c2.78-1.925 10.24-6.996 16.578-11.268 9.044-6.097 11.636-8.356 12.047-10.5.884-4.602 1.699-149.223.888-157.371l-.761-7.638-4.5 2.662M535 862c0 .55.45 1 1 1s1-.45 1-1-.45-1-1-1-1 .45-1 1m-12 10c0 .55.9 1 2 1s2-.45 2-1-.9-1-2-1-2 .45-2 1m-7 7.559c0 .857.45 1.281 1 .941.55-.34 1-1.041 1-1.559s-.45-.941-1-.941-1 .702-1 1.559m225.813 10.124c.721.289 1.584.253 1.916-.079.332-.332-.258-.568-1.312-.525-1.165.048-1.402.285-.604.604m14.456.01c.973.254 2.323.237 3-.037.677-.274-.119-.481-1.769-.461-1.65.02-2.204.244-1.231.498m11.544-.01c.721.289 1.584.253 1.916-.079.332-.332-.258-.568-1.312-.525-1.165.048-1.402.285-.604.604m-53.544 7.01c.973.254 2.323.237 3-.037.677-.274-.119-.481-1.769-.461-1.65.02-2.204.244-1.231.498M806 898c0 .55.45 1 1 1s1-.45 1-1-.45-1-1-1-1 .45-1 1m-118.187 3.683c.721.289 1.584.253 1.916-.079.332-.332-.258-.568-1.312-.525-1.165.048-1.402.285-.604.604m372.951 19.583c-6.62 3.958-18.23 11.988-19.4 13.416-.772.944-.854 2.643-.255 5.31.783 3.485.545 4.421-2.142 8.402-2.528 3.746-3.906 4.737-8.399 6.043-6.409 1.863-7.916 1.909-14.297.436l-4.882-1.127-11.695 7.69c-11.079 7.285-13.525 9.564-10.266 9.564 1.583 0 12.934-6.395 16.072-9.055 4.4-3.729 6.459-4.226 12.386-2.988 4.586.959 6.776.899 11.963-.326 7.075-1.671 9.209-3.189 13.17-9.369 2.356-3.675 2.612-4.803 1.929-8.5-.433-2.344-.486-4.377-.118-4.518.369-.14 1.86-1.04 3.315-2 18.483-12.189 19.25-12.797 18.23-14.446-.734-1.187-1.507-.985-5.611 1.468M751.5 933.686c-20.287 1.776-44.633 11.445-51.999 20.651a500.606 500.606 0 01-3.647 4.511c-1.977 2.388-1.475 8.471.984 11.925 5.639 7.918 17.056 11.185 39.162 11.206 21.747.02 36.033-2.755 51.601-10.02 14.286-6.668 21.399-13.741 21.399-21.28 0-3.435-.629-4.625-4.313-8.155-4.593-4.401-10.519-6.787-21.187-8.531-5.634-.922-23.068-1.088-32-.307M594.5 937c-.367.594.725.971 2.691.93 2.757-.059 2.975-.214 1.309-.93-2.713-1.166-3.28-1.166-4 0m255.5 0c0 .55.45 1 1 1s1-.45 1-1-.45-1-1-1-1 .45-1 1m-474 10.873c0 .557 1.574 5.817 3.497 11.689 7.388 22.552 7.347 38.005-.148 56.438-2.701 6.643-9.543 16.41-14.766 21.08-1.928 1.723-2.701 3.169-2.281 4.264 1.014 2.642 2.432 1.994 7.83-3.577 8.619-8.895 12.6-16.271 17.958-33.267.753-2.388 1.235-9.037 1.197-16.5-.062-11.867-.287-13.209-4.434-26.5-3.793-12.153-4.665-14.042-6.611-14.32-1.233-.175-2.242.136-2.242.693m458.171-.087c.08.393-.21 1.532-.645 2.531-.465 1.068-.331 2.278.325 2.934 1.369 1.369 1.802.98 2.642-2.368.472-1.88.218-2.78-.907-3.211-.859-.33-1.496-.279-1.415.114M449 950.059c0 .582.45.781 1 .441s1-.816 1-1.059-.45-.441-1-.441-1 .477-1 1.059m-10.362 8.441c-.35.914-.001 1.5.893 1.5.808 0 1.469-.675 1.469-1.5s-.402-1.5-.893-1.5-1.152.675-1.469 1.5m136.112.077c-.413.416-.75 1.671-.75 2.79 0 1.471.302 1.731 1.094.939.601-.601.939-1.857.75-2.789-.189-.933-.681-1.356-1.094-.94M440.5 964c-.34.55-.141 1 .441 1s1.059-.45 1.059-1-.198-1-.441-1-.719.45-1.059 1m-9.5 3.227c0 1.823 1.773 3.334 2.757 2.349.343-.343-.137-1.384-1.067-2.314-1.558-1.559-1.69-1.562-1.69-.035m443 1.832c0 .582.45.781 1 .441s1-.816 1-1.059-.45-.441-1-.441-1 .477-1 1.059m-65 2c0 .582.45.781 1 .441s1-.816 1-1.059-.45-.441-1-.441-1 .477-1 1.059M430.158 975c0 1.375.227 1.938.504 1.25.278-.687.278-1.812 0-2.5-.277-.687-.504-.125-.504 1.25M804 978.059c0 .582.45.781 1 .441s1-.816 1-1.059-.45-.441-1-.441-1 .477-1 1.059m-236.884 1.677c-.18 3.474-2.04 10.884-5.337 21.264-1.66 5.225-3.663 12.2-4.452 15.5-2.017 8.441-5.304 30.189-5.316 35.181l-.011 4.182-7.883.687c-4.336.378-8.325.972-8.865 1.319-1.13.726-.426 30.231.767 32.161.575.931 2.767.686 9.298-1.039 4.7-1.242 9.209-2.003 10.02-1.692.811.311 1.784 1.974 2.162 3.695 1.056 4.808 7.906 19.063 12.818 26.673 14.085 21.821 42.953 42.869 72.683 52.991 4.125 1.405 8.85 3.179 10.5 3.944 1.65.764 7.275 2.555 12.5 3.979s9.95 2.959 10.5 3.409c1.228 1.007 20.826 6.01 23.54 6.01 3.243 0 2.223-2.786-1.29-3.523-1.788-.374-9.715-2.673-17.618-5.108-36.474-11.238-53.704-18.083-67.632-26.867-2.75-1.735-6.35-3.984-8-4.999-6.817-4.195-27.5-23.449-27.5-25.601 0-.428-1.247-2.144-2.771-3.813-3.782-4.14-11.457-19.817-14.598-29.818-3.626-11.543-5.003-24.351-4.223-39.271.781-14.954 2.286-23.817 6.53-38.47 3.048-10.524 3.813-12.579 8.351-22.42 2.159-4.68 1.463-7.882-1.593-7.334-.847.152-1.747-.523-2.002-1.5-.358-1.376-.488-1.273-.578.46m225.634 1.243c-2.565 2.475-2.283 6.66.5 7.414 4.968 1.346 16.043 24.676 21.413 45.107 6.033 22.955 5.715 44.55-1.044 71-4.134 16.177-7.489 25.538-13.155 36.705-4.185 8.249-4.542 11.764-.885 8.729 2.189-1.816 8.133-14.05 12.116-24.934 6.068-16.585 11.314-43.526 11.308-58.074-.006-15.599-4.275-37.409-10.224-52.237-4.092-10.199-11.248-24.243-12.862-25.24-.504-.312-.917-1.44-.917-2.508s-.844-2.785-1.875-3.816c-1.031-1.031-2.044-2.316-2.25-2.855-.206-.539-1.163-.22-2.125.709M788.5 982c.34.55.816 1 1.059 1s.441-.45.441-1-.477-1-1.059-1-.781.45-.441 1M426 986c0 .55.45 1 1 1s1-.45 1-1-.45-1-1-1-1 .45-1 1m362 4.059c0 .582.45.781 1 .441s1-.816 1-1.059-.45-.441-1-.441-1 .477-1 1.059M420.5 991c-.34.55-.141 1 .441 1s1.059-.45 1.059-1-.198-1-.441-1-.719.45-1.059 1m150.5 5.059c0 .582.45.781 1 .441s1-.816 1-1.059-.45-.441-1-.441-1 .477-1 1.059M425.123 997c-.083.825-.4 2.625-.705 4-.48 2.161-.402 2.259.579.721.624-.978.941-2.778.705-4-.236-1.221-.497-1.546-.579-.721m338.69.683c.721.289 1.584.253 1.916-.079.332-.332-.258-.568-1.312-.525-1.165.048-1.402.285-.604.604M586 1005c0 .55.702 1 1.559 1s1.281-.45.941-1c-.34-.55-1.041-1-1.559-1s-.941.45-.941 1m140.813 2.683c.721.289 1.584.253 1.916-.079.332-.332-.258-.568-1.312-.525-1.165.048-1.402.285-.604.604m-306.265 2.567c-.419.962-.419 2.538 0 3.5.725 1.667.781 1.667 1.18 0 .23-.962.23-2.538 0-3.5-.399-1.667-.455-1.667-1.18 0m209.769 3.611c-4.277 4.698-4.408 4.989-2.67 5.961 1.49.834 1.512 1.677.246 9.298-2.912 17.519-1.3 40.592 4.077 58.38 3.395 11.232 13.18 30.093 19.226 37.058 1.405 1.618 4.71 5.417 7.344 8.442 12.182 13.987 39.462 33.65 49.458 35.65 5.268 1.053 3.541-2.125-2.748-5.058-6.56-3.058-18.399-10.444-21.673-13.52-1.213-1.139-2.718-2.072-3.344-2.072-1.345 0-26.233-24.604-26.233-25.935 0-.501-1.069-2.184-2.376-3.738-4.22-5.021-13.338-23.558-16.528-33.601-4.294-13.523-5.729-30.086-4.155-47.96.708-8.037 1.738-14.139 2.614-15.481 1.847-2.831 1.853-6.702.012-8.229-1.139-.946-1.806-.78-3.25.805M395 1028.488c-2.475 1.337-6.975 3.581-10 4.987-3.025 1.407-6.625 3.242-8 4.078-1.375.837-5.2 2.854-8.5 4.482-3.3 1.629-6.675 3.418-7.5 3.976-.825.558-4.425 2.364-8 4.012-3.575 1.648-7.175 3.433-8 3.967-.825.534-4.2 2.265-7.5 3.847-6.045 2.897-49.424 24.876-85.467 43.304-10.707 5.474-20.832 10.959-22.5 12.19-1.668 1.23-4.383 2.825-6.033 3.545-3.319 1.446-16.261 10.724-18.288 13.109-6.156 7.245-10.719 19.883-9.698 26.857 1.309 8.933 5.797 15.976 17.308 27.158 20.963 20.362 54.562 39.336 84.678 47.819l13 3.661 24.5.01c22.229.009 35.13-.448 99.5-3.528 11-.527 33.05-1.417 49-1.978 30.13-1.06 45.88-1.991 75.5-4.465 9.625-.803 26.5-2.171 37.5-3.039 24.51-1.935 27.525-2.382 28.218-4.189 1.214-3.162-1.311-3.452-16.34-1.877-8.183.858-19.153 2.212-24.378 3.009-11.463 1.749-28.917 2.953-81 5.586-115.487 5.838-156.449 7.386-178.753 6.755-14.995-.423-16.368-.638-28.747-4.506-13.183-4.119-30.468-11.345-37.269-15.58-2.052-1.278-4.462-2.593-5.355-2.921-1.942-.715-12.352-7.627-23.376-15.522-11.527-8.255-23.616-20.998-27.609-29.101-3.641-7.391-3.948-11.293-1.374-17.509.94-2.269 2.405-5.822 3.257-7.896 3.379-8.227 19.052-18.683 56.018-37.373a8791.013 8791.013 0 0032.795-16.663c6.649-3.406 13.174-6.689 14.5-7.296 1.327-.607 12.763-6.407 25.413-12.891 24.406-12.508 31.692-16.177 34.969-17.61 1.117-.488 5.717-2.891 10.223-5.339 4.506-2.449 10.581-5.462 13.5-6.696 6.281-2.656 12.012-6.721 11.239-7.972-.86-1.393-2.578-1.023-7.431 1.599m24.079-.905c.048 1.165.285 1.402.604.605.289-.722.253-1.585-.079-1.917-.332-.332-.568.258-.525 1.312M419.3 1040c0 3.025.187 4.263.416 2.75.229-1.513.229-3.987 0-5.5s-.416-.275-.416 2.75m130.2 20.07c-1.1.434-3.35.828-5 .875-5.554.159-5.732.64-4.944 13.438.619 10.045.943 11.603 2.331 11.219.887-.245 4.204-1.169 7.37-2.054l5.757-1.608-.568-3.72c-2.996-19.619-2.824-18.988-4.946-18.15m-131.5 1.859c0 1.174.649 2.071 1.5 2.071.825 0 1.5-.257 1.5-.571 0-.315-.675-1.247-1.5-2.072-1.333-1.333-1.5-1.27-1.5.572m472.079.654c.048 1.165.285 1.402.604.605.289-.722.253-1.585-.079-1.917-.332-.332-.568.258-.525 1.312M421 1072.5c0 .825.436 1.5.969 1.5.532 0 .709-.675.393-1.5-.317-.825-.753-1.5-.969-1.5-.216 0-.393.675-.393 1.5m475.186 3.226c.232 1.207 2.421 2.273 7.286 3.547 3.824 1.002 8.854 2.662 11.178 3.69 2.324 1.028 6.841 2.409 10.038 3.07 3.196.66 8.962 2.437 12.812 3.948 12.702 4.985 21.55 6.194 18.508 2.528-.6-.722-2.309-1.599-3.799-1.95-2.9-.682-25.001-7.568-42.211-13.152-12.01-3.896-14.292-4.174-13.812-1.681m-472.107 5.857c.048 1.165.285 1.402.604.605.289-.722.253-1.585-.079-1.917-.332-.332-.568.258-.525 1.312m2.953 19.545c-.018.895.643 2.187 1.468 2.872 1.923 1.596 1.943-.032.032-2.559-1.234-1.631-1.473-1.681-1.5-.313M434 1109.5c0 .825.45 1.5 1 1.5s1-.675 1-1.5-.45-1.5-1-1.5-1 .675-1 1.5m-2.436 6.793c.376.986.935 1.541 1.243 1.233.308-.307.001-1.114-.683-1.793-.988-.98-1.102-.865-.56.56m8.458 1.835c-.022 1.613 2.651 4.532 3.434 3.75.224-.225-.452-1.526-1.502-2.893-1.423-1.852-1.915-2.071-1.932-.857m-5.355 2.539c-.367.366-.667 1.131-.667 1.7 0 .626.466.567 1.183-.15.651-.651.951-1.416.667-1.7-.284-.284-.817-.217-1.183.15M443.5 1126c.34.55 1.068 1 1.618 1s.722-.45.382-1c-.34-.55-1.068-1-1.618-1s-.722.45-.382 1m-6.5 2c0 .55.477 1 1.059 1s.781-.45.441-1-.816-1-1.059-1-.441.45-.441 1m425.697.393c-.409 1.041-.508 2.129-.221 2.417.913.912 1.715-.583 1.333-2.482-.35-1.74-.404-1.737-1.112.065m-421.502 2.107c.02 1.65.244 2.204.498 1.231.254-.973.237-2.323-.037-3-.274-.677-.481.119-.461 1.769m1.665 5.194c1.275 2.431 3.14 3.928 3.14 2.52 0-.497-.965-1.761-2.146-2.809-2.13-1.892-2.137-1.89-.994.289m10.274 3.806c.005 2.852.224 3.445.764 2.066.52-1.329.986-1.563 1.489-.75.402.651.509 1.543.238 1.982-.271.439-.122 1.398.332 2.132.618 1 1.006.763 1.548-.944.517-1.631.245-2.546-.955-3.218-.923-.516-2.07-1.913-2.55-3.103-.712-1.765-.872-1.426-.866 1.835M451 1147c0 .55.45 1 1 1s1-.45 1-1-.45-1-1-1-1 .45-1 1m401.777-.458c-1.679 1.712.816 2.458 8.217 2.458 16.003 0 21.275 5.616 15.83 16.865-7.726 15.959-44.193 36.151-79.589 44.069-7.296 1.632-13.687 3.227-14.201 3.545-.514.318-12.32 2.172-26.234 4.12-32.533 4.556-55.186 5.435-77.094 2.991-21.809-2.432-32.656-4.54-34.896-6.78-1.036-1.036-2.317-1.615-2.846-1.287-.53.327-.964.118-.964-.464 0-.582-.562-1.061-1.25-1.064-.687-.003-2.548-1.044-4.135-2.313-2.528-2.024-2.739-2.581-1.707-4.51 1.512-2.825 7.628-6.701 17.092-10.832 7.229-3.156 10.35-6.34 6.213-6.34-3.532 0-18.648 7.729-22.963 11.741-3.405 3.166-4.247 4.629-4.236 7.355.02 4.981 1.018 7.904 2.698 7.904.814 0 2.677.853 4.141 1.895 3.969 2.826 23.547 6.701 41.647 8.242 34.719 2.957 64.573.796 107-7.745 16.526-3.328 41.915-10.637 42.991-12.377.293-.474 2.89-1.644 5.771-2.599 8.428-2.794 24.937-12.349 36.662-21.218 4.968-3.758 12.076-16.35 12.076-21.393 0-4.228-2.567-8.523-6.267-10.487-3.398-1.804-22.536-3.222-23.956-1.776M463 1148.882c0 .55.45 1.278 1 1.618.55.34 1 .168 1-.382s-.45-1.278-1-1.618c-.55-.34-1-.168-1 .382M480.5 1174c.34.55.816 1 1.059 1s.441-.45.441-1-.477-1-1.059-1-.781.45-.441 1m89 34c.34.55 1.491 1 2.559 1s1.941-.45 1.941-1-1.152-1-2.559-1c-1.451 0-2.292.433-1.941 1" fill="undefined" fill-rule="evenodd"/></svg>